<?xml version="1.0" encoding="UTF-8" standalone="no"?>
<svg width="96px" height="128px" viewBox="0 0 96 128" version="1.1" xmlns="http://www.w3.org/2000/svg" xmlns:xlink="http://www.w3.org/1999/xlink" xmlns:sketch="http://www.bohemiancoding.com/sketch/ns">
    <!-- Generator: Sketch 3.3.1 (12002) - http://www.bohemiancoding.com/sketch -->
    <title>Fill 35</title>
    <desc>Created with Sketch.</desc>
    <defs></defs>
    <g id="Page-1" stroke="none" stroke-width="1" fill="none" fill-rule="evenodd" sketch:type="MSPage">
        <g id="Artboard-1" sketch:type="MSArtboardGroup" transform="translate(-589.000000, -413.000000)" fill="#FFFFFF">
            <path d="M637,485 C650.25,485 661,474.255 661,461 C661,447.746 650.25,437 637,437 C623.75,437 613,447.746 613,461 C613,474.255 623.75,485 637,485 C637,485 623.75,485 637,485 L637,485 L637,485 Z M685,461 C685,495.913 644.38,536.928 642.66,538.657 C641.09,540.219 639.05,541 637,541 C634.95,541 632.91,540.219 631.34,538.657 C629.61,536.928 589,495.913 589,461 C589,434.533 610.53,413 637,413 C663.47,413 685,434.533 685,461 L685,461 Z" id="Fill-35" sketch:type="MSShapeGroup"></path>
        </g>
    </g>
</svg>