<?xml version="1.0" encoding="UTF-8" standalone="no"?>
<!-- Generator: Adobe Illustrator 18.1.0, SVG Export Plug-In . SVG Version: 6.00 Build 0)  -->

<svg
   xmlns:dc="http://purl.org/dc/elements/1.1/"
   xmlns:cc="http://creativecommons.org/ns#"
   xmlns:rdf="http://www.w3.org/1999/02/22-rdf-syntax-ns#"
   xmlns:svg="http://www.w3.org/2000/svg"
   xmlns="http://www.w3.org/2000/svg"
   xmlns:xlink="http://www.w3.org/1999/xlink"
   xmlns:sodipodi="http://sodipodi.sourceforge.net/DTD/sodipodi-0.dtd"
   xmlns:inkscape="http://www.inkscape.org/namespaces/inkscape"
   version="1.1"
   x="0px"
   y="0px"
   width="250"
   height="137.5"
   viewBox="0 0 250 137.5"
   enable-background="new 0 0 134.5 99.5"
   xml:space="preserve"
   id="svg4141"
   inkscape:version="0.91+devel+osxmenu r12911"
   sodipodi:docname="ink-RH_Summit_GlowWave2_Warm_RGB2.svg"><metadata
     id="metadata6672"><rdf:RDF><cc:Work
         rdf:about=""><dc:format>image/svg+xml</dc:format><dc:type
           rdf:resource="http://purl.org/dc/dcmitype/StillImage" /><dc:title></dc:title></cc:Work></rdf:RDF></metadata><defs
     id="defs6670"><linearGradient
       inkscape:collect="always"
       id="linearGradient9237"><stop
         style="stop-color:#890000;stop-opacity:1;"
         offset="0"
         id="stop9239" /><stop
         style="stop-color:#400000;stop-opacity:1"
         offset="1"
         id="stop9241" /></linearGradient><radialGradient
       inkscape:collect="always"
       xlink:href="#linearGradient9237"
       id="radialGradient9243"
       cx="53.85"
       cy="48.5"
       fx="53.85"
       fy="48.5"
       r="164.95"
       gradientTransform="matrix(1,0,0,0.58866,9.5238,3.1405)"
       gradientUnits="userSpaceOnUse" /><linearGradient
       gradientTransform="matrix(0.3405,-0.9402,-0.9402,-0.3405,64.117,99.89)"
       y2="70.808"
       x2="130.41"
       y1="21.911"
       x1="-4.5928"
       gradientUnits="userSpaceOnUse"
       id="SVGID_100_"><stop
         id="stop6041"
         style="stop-color:#F0AB00;stop-opacity:0"
         offset="0" /><stop
         id="stop6043"
         style="stop-color:#CC0000"
         offset="0.6537" /><stop
         id="stop6045"
         style="stop-color:#C70004;stop-opacity:0.8499"
         offset="0.7057" /><stop
         id="stop6047"
         style="stop-color:#BA0010;stop-opacity:0.681"
         offset="0.7642" /><stop
         id="stop6049"
         style="stop-color:#A30025;stop-opacity:0.5028"
         offset="0.8259" /><stop
         id="stop6051"
         style="stop-color:#840041;stop-opacity:0.3183"
         offset="0.8898" /><stop
         id="stop6053"
         style="stop-color:#5C0066;stop-opacity:0.1307"
         offset="0.9547" /><stop
         id="stop6055"
         style="stop-color:#3B0083;stop-opacity:0"
         offset="1" /></linearGradient><radialGradient
       inkscape:collect="always"
       xlink:href="#SVGID_100_"
       id="radialGradient20615"
       cx="35.3"
       cy="8.0253"
       fx="35.3"
       fy="8.0253"
       r="132.56"
       gradientTransform="matrix(1.027,0,0,0.61216,11.829,15.537)"
       gradientUnits="userSpaceOnUse" /></defs><sodipodi:namedview
     pagecolor="#ffffff"
     bordercolor="#666666"
     borderopacity="1"
     objecttolerance="10"
     gridtolerance="10"
     guidetolerance="10"
     inkscape:pageopacity="0"
     inkscape:pageshadow="2"
     inkscape:window-width="1239"
     inkscape:window-height="595"
     id="namedview6668"
     showgrid="false"
     fit-margin-top="0"
     fit-margin-left="0"
     fit-margin-right="0"
     fit-margin-bottom="0"
     borderlayer="true"
     inkscape:zoom="2"
     inkscape:cx="117.86"
     inkscape:cy="83.118"
     inkscape:window-x="0"
     inkscape:window-y="23"
     inkscape:window-maximized="0"
     inkscape:current-layer="Layer_1" /><symbol
     id="Yellow_dot"
     viewBox="-1.1 -1.1 2.3 2.3"
     transform="translate(37.5,27)"><path
       d="m 1.1,0.1 c 0.1,-0.6 -0.4,-1.2 -1,-1.3 -0.6,-0.1 -1.2,0.4 -1.3,1 -0.1,0.6 0.4,1.2 1,1.3 0.6,0.1 1.3,-0.3 1.3,-1 z"
       id="path4144"
       inkscape:connector-curvature="0"
       style="fill:#fdb913" /></symbol><g
     id="Layer_1"
     transform="translate(37.5,27)"><rect
       x="-101.58"
       y="-65.41"
       width="329.9"
       height="194.2"
       id="rect4147"
       style="fill:url(#radialGradient9243);fill-opacity:1" /><g
       id="g9247"
       style="opacity:0.758"
       transform="translate(31,7)"><path
         id="path6057"
         style="opacity:0.55107;fill:none;fill-opacity:1;stroke:url(#radialGradient20615);stroke-width:0.15118;stroke-linecap:round;stroke-linejoin:round;stroke-miterlimit:10;stroke-dasharray:none"
         d="m 86.182,78.806 c -8.1,15.2 -23.9,35.704 -63,-21.6 m 64.3,20.1 c -9.6,15.7 -26.9,36.004 -68.2,-23.7 m 69.6,22.2 c -11.1,16.3 -29.9,36.404 -73.4,-25.7 m 74.8,24.2 c -12.6,16.9 -32.8,36.804 -78.6,-27.5 m 80.1,26 c -14,17.5 -35.7,37.204 -83.8004,-29.3 m 85.3004,27.7 c -15.4,18.2 -38.5,37.804 -88.9004,-30.8 m 90.4004,29.2 c -16.7,18.9 -41.3,38.404 -94.0004,-32.3 m 95.7004,30.7 c -18,19.7 -44.1,39.104 -99.1,-33.7 m 100.7,32.1 c -19.2,20.4 -46.8,39.804 -104.1,-34.9 m 105.8,33.2 c -20.4,21.3 -49.4,40.604 -109.1,-36 m 110.898,34.3 c -21.698,22.2 -52.098,41.504 -114.098,-37 m 115.898,35.3 c -22.798,23 -54.598,42.304 -118.998,-38 m 120.898,36.3 c -23.898,23.9 -57.198,43.304 -123.898,-38.7 m 125.798,36.9 c -24.998,24.9 -59.598,44.304 -128.798,-39.4 m 130.698,37.6 c -25.998,25.9 -61.998,45.304 -133.598,-40 m 135.598,38.2 c -26.898,26.9 -64.398,46.504 -138.398,-40.4 m 140.398,38.6 c -27.798,27.9 -66.698,47.604 -143.098,-40.8 m 145.198,38.9 c -28.798,29 -68.998,48.8 -147.798,-41.0003 M 117.18,48.606 C 87.682,78.706 46.082,98.706 -35.118,7.5057 M 119.38,46.606 C 89.082,77.906 46.082,98.106 -37.618,5.5057 M 121.48,44.606 C 90.482,77.106 46.182,97.506 -40.018,3.7057 M 123.68,42.606 C 91.982,76.306 46.382,96.906 -42.218,1.9057 M 125.98,40.506 c -32.398,35 -79.398,55.9 -170.398,-40.4003 M 128.18,38.406 C 95.282,74.606 46.982,95.806 -46.518,-1.4943 M 130.48,36.306 c -33.498,37.5 -83.098,59 -179.098,-39.4003 M 132.78,34.106 C 98.882,73.006 47.982,94.806 -50.518,-4.6943 M 135.18,31.906 c -34.4,40.2 -86.598,62.4 -187.498,-38 m 189.798,35.7 c -34.7,41.7 -88.198,64.2 -191.598,-37.1 m 193.998,34.8 c -35.1,43.1 -89.798,66 -195.698,-36.2 m 198.098,33.9 c -35.3,44.5 -91.298,67.8 -199.698,-35.1 m 202.198,32.7 c -35.6,46 -92.798,69.7 -203.598,-34 m 205.998,31.5 c -35.7,47.6 -94.098,71.8 -207.498,-32.6 m 209.998,30.1 c -35.9,49.2 -95.498,73.8 -211.298,-31.2 m 213.798,28.7 c -35.9,50.7 -96.698,75.8 -214.998,-29.8 m 217.498,27.2 c -36,52.3 -97.898,78 -218.598,-28.2 M 157.18,9.9057 C 121.28,63.806 58.182,90.006 -65.018,-16.594 M 159.68,7.2057 C 123.88,62.806 59.682,89.506 -66.018,-17.594 M 162.28,4.5057 C 126.68,61.806 61.282,89.106 -66.818,-18.394 M 164.78,1.8057 C 129.38,60.806 62.982,88.606 -67.618,-19.194 M 167.38,-1.0943 C 132.28,59.706 64.682,88.106 -68.318,-19.894 M 169.88,-3.8943 C 135.18,58.606 66.582,87.606 -69.018,-20.594 m 241.498,13.7 c -34.3,64.3 -103.998,94 -241.998,-14.4 m 244.498,11.4 c -33.8,66.2 -104.598,96.5 -244.998,-12.1 m 247.598,9.1 c -33.3,68 -104.998,99.1 -247.898,-9.6 m 250.498,6.5 c -32.7,69.9 -105.498,101.6 -250.698,-7.1 m 253.198,4 c -32,71.8 -105.798,104.2 -253.398,-4.5 m 255.998,1.3 c -31.3,73.7 -105.998,106.9 -256.098,-1.8 m 258.598,-1.5 c -30.5,75.7 -106.198,109.6 -258.598,1.1 m 261.198,-4.4 c -29.7,77.7 -106.298,112.4 -261.098,4 m 263.598,-7.4 c -28.7,79.7 -106.198,115.2 -263.398,7 m 155.2,106.3 c 23.198,-29.3 57.098,-44.1 109.298,-112.8 M 84.282,81.706 c 21.598,-28.9 54.898,-42.9 107.998,-109.6 M 83.982,82.406 c 19.898,-28.6 52.698,-41.9 106.598,-106.5 M 83.582,83.106 c 18.198,-28.3 50.398,-40.8 104.998,-103.6 M 83.182,83.806 c 16.5,-28 47.998,-39.9 103.198,-100.7 M 82.782,84.406 c 14.7,-27.8 45.598,-39 101.398,-97.9 m -101.898,98.6 c 12.9,-27.7 43.098,-38.2 99.298,-95.2 m -99.798,95.8 c 11,-27.5 40.598,-37.5 97.098,-92.6 m -97.598,93.2 c 9.2,-27.5 37.998,-36.8 94.798,-90.1003 M 80.782,86.906 c 7.3,-27.5 35.298,-36.2 92.298,-87.7003 M 80.182,87.406 c 5.4,-27.5 32.598,-35.6 89.698,-85.4003 M 79.582,88.006 c 3.4,-27.6 29.798,-35.2 86.998,-83.2003 M 78.982,88.506 c 1.4,-27.8 26.998,-34.8 84.098,-81.1003 M 78.282,88.906 c -0.6,-28 24.098,-34.5 81.098,-79.1003 M 77.582,89.406 c -2.6,-28.2 21.2,-34.2 77.998,-77.2 m -78.698,77.6 c -4.6,-28.5 18.2,-34 74.698,-75.4 m -75.498,75.8 c -6.7,-28.9 15.2,-34 71.398,-73.7 m -72.198,74 c -8.8,-29.3 12.2,-33.9 67.898,-72.1 m -68.798,72.4 c -10.9,-29.8 9.1,-34 64.298,-70.7 m -65.198,70.9 c -13,-30.3 5.9,-34.1 60.498,-69.3 m -61.498,69.5 c -15.2,-30.9 2.7,-34.3 56.698,-68 m -57.698,68.1 c -17.3,-31.5 -0.5,-34.6 52.798,-66.9 m -53.798,67 c -19.5,-32.2 -3.8,-35 48.698,-65.9 m -49.798,66 c -21.7,-32.9 -7,-35.4 44.598,-64.9 m -45.698,64.9 c -23.9,-33.8 -10.4,-36 40.298,-64.2 m -41.498,64.1 c -26.1,-34.6 -13.7,-36.5 35.998,-63.4 m -37.198,63.2 c -28.3,-35.5 -17.1,-37.2 31.5,-62.8 m -32.7,62.6 c -30.6,-36.4 -20.6,-38 26.9,-62.4 m -28.2,62.2 c -32.8,-37.5 -24,-38.8 22.3,-62 m -23.6,61.6 c -35.1,-38.6 -27.5,-39.8 17.6,-61.8 m -19,61.4 c -37.4,-39.8 -31,-40.8 12.8,-61.7 m -14.2,61.2 c -39.6,-41 -34.5,-41.9 7.9,-61.7 m -9.4,61.1 c -41.9,-42.2 -38,-43.1 3,-61.9 m -4.4,61.2 c -44.2,-43.5 -41.7,-44.3 -2.2,-62.1 m 0.6,61.4 c -46.5004,-45 -45.2004,-45.7 -7.3,-62.5 m 5.8,61.6 c -48.8004,-46.4 -48.8004,-47.1 -12.5,-63 m 10.9,62.1 c -51.0004,-48 -52.4,-48.7 -17.7,-63.7 m 16.1,62.7 c -53.3,-49.5 -56,-50.3 -23.1,-64.4 m 21.5,63.3 c -55.7,-51.2 -59.7,-52 -28.5,-65.4 m 26.8,64.1 c -57.9,-52.9 -63.4,-53.8 -34,-66.3 m 32.3,65 c -60.2,-54.7 -67,-55.7 -39.5004,-67.5 m 37.8004,66 c -62.5,-56.5 -70.7,-57.6 -45.1,-68.8 m 43.3,67.3 c -64.7,-58.5 -74.3,-59.8 -50.7,-70.3003 m 49,68.6003 c -67,-60.4 -78,-61.9 -56.4,-71.8003 m 54.6,70.0003 c -69.3,-62.5 -81.7,-64.2 -62.1,-73.5003 m 60.3,71.5003 c -71.5,-64.5003 -85.4,-66.5003 -67.9,-75.3003 m 66.1,73.3003 c -73.7,-66.7003 -89.1,-69.0003 -73.8,-77.3 m 72,75.1 c -76,-68.9003 -92.8,-71.5003 -79.7,-79.4 m 77.9,77 c -78.2,-71.2003 -96.4,-74.1 -85.6,-81.6 m 83.8,79.2 c -80.4,-73.6 -100.1,-76.9 -91.6,-84"
         inkscape:connector-curvature="0" /><g
         id="g6059"
         style=""><g
           id="g6063"
           style=""><linearGradient
             y2="-39.815"
             x2="53.776"
             y1="39.085"
             x1="53.776"
             gradientUnits="userSpaceOnUse"
             id="SVGID_101_"><stop
               id="stop6066"
               style="stop-color:#F0AB00"
               offset="0" /><stop
               id="stop6068"
               style="stop-color:#F0AB00;stop-opacity:0"
               offset="1" /></linearGradient><path
             style="fill:url(#SVGID_101_)"
             inkscape:connector-curvature="0"
             id="path6070"
             d="m 186.6,-39.3 c 0,0 -0.4,1.2 -1.2,3.4 -0.4,1.1 -0.8,2.5 -1.4,4 -0.6,1.6 -1.3,3.4 -2.2,5.4 -0.8,2 -1.8,4.2 -2.9,6.6 -1,2.4 -2.5,4.9 -3.9,7.6 -0.7,1.4 -1.5,2.7 -2.4,4.1 -0.9,1.4 -1.7,2.8 -2.6,4.2 -2,2.8 -4,5.8 -6.4,8.6 -4.8,5.8 -10.5,11.6 -17.5,16.7 -7,5.1 -15.1,9.4 -24,12.4 -8.9,3 -18.5,4.8 -28.4,5.3 -2.5,0.1 -4.9,0.1 -7.4,0.2 -2.5,-0.1 -5,-0.2 -7.5,-0.3 L 76.9,38.8 75,38.6 71.3,38.2 67.6,37.8 64,37.2 C 54.1,35.8 44.4,33.2 35,30.4 30.4,28.8 25.7,27.5 21.2,25.7 19,24.9 16.7,24 14.5,23.2 12.3,22.3 10.1,21.4 8,20.5 5.9,19.6 3.7,18.7 1.6,17.8 c -2.1,-1 -4.1,-1.9 -6.2,-2.9 -2,-1 -4,-1.9 -6,-2.8 -1.9,-1 -3.9,-2 -5.8,-3 C -24,5.3 -31,1.2 -37.5,-2.4 c -3.2,-1.9 -6.3,-3.7 -9.2,-5.5 -1.4,-0.9 -2.9,-1.7 -4.2,-2.6 -1.4,-0.9 -2.7,-1.7 -3.9,-2.5 -5.1,-3.3 -9.6,-6.1 -13.1,-8.6 -7.2,-4.9 -11.2,-7.7 -11.2,-7.7 0,0 4.2,2.7 11.5,7.3 3.6,2.4 8.2,5 13.3,8.2 1.3,0.8 2.6,1.6 4,2.4 1.4,0.8 2.8,1.6 4.3,2.4 2.9,1.7 6,3.4 9.3,5.3 6.5,3.5 13.6,7.4 21.3,11.1 1.9,0.9 3.8,1.9 5.8,2.9 2,0.9 4,1.8 6,2.7 2,0.9 4.1,1.9 6.2,2.8 2.1,0.9 4.2,1.8 6.4,2.6 2.1,0.9 4.3,1.8 6.5,2.7 2.2,0.8 4.4,1.6 6.7,2.5 4.4,1.7 9.1,3.1 13.7,4.6 9.3,2.7 18.9,5.2 28.6,6.5 l 3.6,0.6 3.7,0.4 3.7,0.4 1.8,0.2 1.8,0.1 c 2.4,0.1 4.9,0.2 7.3,0.3 2.4,-0.1 4.9,-0.1 7.3,-0.2 9.6,-0.5 19.1,-2.2 27.8,-5.1 8.7,-2.9 16.7,-7 23.6,-11.8 7,-4.8 12.7,-10.5 17.5,-16.1 2.5,-2.7 4.5,-5.7 6.5,-8.4 1,-1.4 1.8,-2.8 2.7,-4.1 0.9,-1.3 1.7,-2.6 2.5,-3.9 1.5,-2.6 3,-5 4.1,-7.4 1.2,-2.3 2.3,-4.5 3.1,-6.5 0.9,-2 1.7,-3.8 2.3,-5.3 0.6,-1.6 1.1,-2.9 1.5,-4 0.9,-2.1 1.3,-3.2 1.3,-3.2 z" /></g></g><g
         id="g6072"
         style=""><g
           id="g6076"
           style=""><g
             id="g6078"
             style=""><g
               id="g6080"
               style=""><circle
                 style="fill:#f0ab00"
                 id="circle6082"
                 r="0.3"
                 cy="24.4"
                 cx="139.5" /></g><g
               id="g6084"
               style=""><circle
                 style="fill:#f0ab00"
                 id="circle6086"
                 r="0.3"
                 cy="25.3"
                 cx="137.9" /></g><g
               id="g6088"
               style=""><circle
                 style="fill:#f0ab00"
                 id="circle6090"
                 r="0.3"
                 cy="29.5"
                 cx="131.4" /></g><g
               id="g6092"
               style=""><circle
                 style="fill:#f0ab00"
                 id="circle6094"
                 r="0.3"
                 cy="37.4"
                 cx="121.8" /></g><g
               id="g6096"
               style=""><circle
                 style="fill:#f0ab00"
                 id="circle6098"
                 r="0.3"
                 cy="54.1"
                 cx="99.5" /></g><g
               id="g6100"
               style=""><circle
                 style="fill:#f0ab00"
                 id="circle6102"
                 r="0.3"
                 cy="77.7"
                 cx="67" /></g><g
               id="g6104"
               style=""><circle
                 style="fill:#f0ab00"
                 id="circle6106"
                 r="0.3"
                 cy="88.7"
                 cx="57.5" /></g><g
               id="g6108"
               style=""><circle
                 style="fill:#f0ab00"
                 id="circle6110"
                 r="0.3"
                 cy="30.2"
                 cx="131.9" /></g><g
               id="g6112"
               style=""><circle
                 style="fill:#f0ab00"
                 id="circle6114"
                 r="0.3"
                 cy="32"
                 cx="126.3" /></g><g
               id="g6116"
               style=""><circle
                 style="fill:#f0ab00"
                 id="circle6118"
                 r="0.3"
                 cy="38.7"
                 cx="102.6" /></g><g
               id="g6120"
               style=""><circle
                 style="fill:#f0ab00"
                 id="circle6122"
                 r="0.3"
                 cy="44.3"
                 cx="88.5" /></g><g
               id="g6124"
               style=""><circle
                 style="fill:#f0ab00"
                 id="circle6126"
                 r="0.3"
                 cy="49.6"
                 cx="61.7" /></g><g
               id="g6128"
               style=""><circle
                 style="fill:#f0ab00"
                 id="circle6130"
                 r="0.3"
                 cy="53.2"
                 cx="44.4" /></g><g
               id="g6132"
               style=""><circle
                 style="fill:#f0ab00"
                 id="circle6134"
                 r="0.3"
                 cy="56"
                 cx="29.7" /></g><g
               id="g6136"
               style=""><circle
                 style="fill:#f0ab00"
                 id="circle6138"
                 r="0.3"
                 cy="57.3"
                 cx="24.6" /></g><g
               id="g6140"
               style=""><circle
                 style="fill:#f0ab00"
                 id="circle6142"
                 r="0.3"
                 cy="34.5"
                 cx="124.1" /></g><g
               id="g6144"
               style=""><circle
                 style="fill:#f0ab00"
                 id="circle6146"
                 r="0.3"
                 cy="37.1"
                 cx="106.8" /></g><g
               id="g6148"
               style=""><circle
                 style="fill:#f0ab00"
                 id="circle6150"
                 r="0.3"
                 cy="40.4"
                 cx="87" /></g><g
               id="g6152"
               style=""><circle
                 style="fill:#f0ab00"
                 id="circle6154"
                 r="0.3"
                 cy="43.9"
                 cx="64.9" /></g><g
               id="g6156"
               style=""><circle
                 style="fill:#f0ab00"
                 id="circle6158"
                 r="0.3"
                 cy="48"
                 cx="36.5" /></g><g
               id="g6160"
               style=""><circle
                 style="fill:#f0ab00"
                 id="circle6162"
                 r="0.3"
                 cy="46.5"
                 cx="22.5" /></g><g
               id="g6164"
               style=""><circle
                 style="fill:#f0ab00"
                 id="circle6166"
                 r="0.3"
                 cy="44.8"
                 cx="16.3" /></g><g
               id="g6168"
               style=""><circle
                 style="fill:#f0ab00"
                 id="circle6170"
                 r="0.3"
                 cy="38.8"
                 cx="120.4" /></g><g
               id="g6172"
               style=""><circle
                 style="fill:#f0ab00"
                 id="circle6174"
                 r="0.3"
                 cy="45.6"
                 cx="104.6" /></g><g
               id="g6176"
               style=""><circle
                 style="fill:#f0ab00"
                 id="circle6178"
                 r="0.3"
                 cy="59.1"
                 cx="78.1" /></g><g
               id="g6180"
               style=""><circle
                 style="fill:#f0ab00"
                 id="circle6182"
                 r="0.3"
                 cy="78.5"
                 cx="55.4" /></g><g
               id="g6184"
               style=""><circle
                 style="fill:#f0ab00"
                 id="circle6186"
                 r="0.3"
                 cy="85.9"
                 cx="45.4" /></g><g
               id="g6188"
               style=""><circle
                 style="fill:#f0ab00"
                 id="circle6190"
                 r="0.3"
                 cy="89.8"
                 cx="40.1" /></g><g
               id="g6192"
               style=""><circle
                 style="fill:#f0ab00"
                 id="circle6194"
                 r="0.3"
                 cy="30.9"
                 cx="127.3" /></g><g
               id="g6196"
               style=""><circle
                 style="fill:#f0ab00"
                 id="circle6198"
                 r="0.3"
                 cy="32.3"
                 cx="124.1" /></g><g
               id="g6200"
               style=""><circle
                 style="fill:#f0ab00"
                 id="circle6202"
                 r="0.3"
                 cy="32.8"
                 cx="121.4" /></g><g
               id="g6204"
               style=""><circle
                 style="fill:#f0ab00"
                 id="circle6206"
                 r="0.3"
                 cy="33.8"
                 cx="118.7" /></g><g
               id="g6208"
               style=""><circle
                 style="fill:#f0ab00"
                 id="circle6210"
                 r="0.3"
                 cy="35.4"
                 cx="117" /></g><g
               id="g6212"
               style=""><circle
                 style="fill:#f0ab00"
                 id="circle6214"
                 r="0.3"
                 cy="34.5"
                 cx="115" /></g><g
               id="g6216"
               style=""><circle
                 style="fill:#f0ab00"
                 id="circle6218"
                 r="0.3"
                 cy="36.7"
                 cx="115.8" /></g><g
               id="g6220"
               style=""><circle
                 style="fill:#f0ab00"
                 id="circle6222"
                 r="0.3"
                 cy="37.5"
                 cx="109.3" /></g><g
               id="g6224"
               style=""><circle
                 style="fill:#f0ab00"
                 id="circle6226"
                 r="0.3"
                 cy="38.9"
                 cx="110.4" /></g><g
               id="g6228"
               style=""><circle
                 style="fill:#f0ab00"
                 id="circle6230"
                 r="0.3"
                 cy="42.9"
                 cx="110" /></g><g
               id="g6232"
               style=""><circle
                 style="fill:#f0ab00"
                 id="circle6234"
                 r="0.3"
                 cy="44.2"
                 cx="107.9" /></g><g
               id="g6236"
               style=""><circle
                 style="fill:#f0ab00"
                 id="circle6238"
                 r="0.3"
                 cy="51.8"
                 cx="105.8" /></g><g
               id="g6240"
               style=""><circle
                 style="fill:#f0ab00"
                 id="circle6242"
                 r="0.3"
                 cy="57.8"
                 cx="93.8" /></g><g
               id="g6244"
               style=""><circle
                 style="fill:#f0ab00"
                 id="circle6246"
                 r="0.3"
                 cy="75.7"
                 cx="80.6" /></g><g
               id="g6248"
               style=""><circle
                 style="fill:#f0ab00"
                 id="circle6250"
                 r="0.3"
                 cy="89.8"
                 cx="71.1" /></g><g
               id="g6252"
               style=""><circle
                 style="fill:#f0ab00"
                 id="circle6254"
                 r="0.3"
                 cy="106.9"
                 cx="64.6" /></g><g
               id="g6256"
               style=""><circle
                 style="fill:#f0ab00"
                 id="circle6258"
                 r="0.3"
                 cy="114.4"
                 cx="60.1" /></g><g
               id="g6260"
               style=""><circle
                 style="fill:#f0ab00"
                 id="circle6262"
                 r="0.3"
                 cy="117.9"
                 cx="59.2" /></g><g
               id="g6264"
               style=""><circle
                 style="fill:#f0ab00"
                 id="circle6266"
                 r="0.3"
                 cy="36.4"
                 cx="119.4" /></g><g
               id="g6268"
               style=""><circle
                 style="fill:#f0ab00"
                 id="circle6270"
                 r="0.3"
                 cy="36.1"
                 cx="112.9" /></g><g
               id="g6272"
               style=""><circle
                 style="fill:#f0ab00"
                 id="circle6274"
                 r="0.3"
                 cy="40.3"
                 cx="106.2" /></g><g
               id="g6276"
               style=""><circle
                 style="fill:#f0ab00"
                 id="circle6278"
                 r="0.3"
                 cy="44.9"
                 cx="93.9" /></g><g
               id="g6280"
               style=""><circle
                 style="fill:#f0ab00"
                 id="circle6282"
                 r="0.3"
                 cy="49.3"
                 cx="85.1" /></g><g
               id="g6284"
               style=""><circle
                 style="fill:#f0ab00"
                 id="circle6286"
                 r="0.3"
                 cy="51.4"
                 cx="81" /></g><g
               id="g6288"
               style=""><circle
                 style="fill:#f0ab00"
                 id="circle6290"
                 r="0.3"
                 cy="53.5"
                 cx="76.6" /></g><g
               id="g6292"
               style=""><circle
                 style="fill:#f0ab00"
                 id="circle6294"
                 r="0.3"
                 cy="55.9"
                 cx="70.4" /></g><g
               id="g6296"
               style=""><circle
                 style="fill:#f0ab00"
                 id="circle6298"
                 r="0.3"
                 cy="60.8"
                 cx="58.7" /></g><g
               id="g6300"
               style=""><circle
                 style="fill:#f0ab00"
                 id="circle6302"
                 r="0.3"
                 cy="64.6"
                 cx="49.6" /></g><g
               id="g6304"
               style=""><circle
                 style="fill:#f0ab00"
                 id="circle6306"
                 r="0.3"
                 cy="71.1"
                 cx="34.5" /></g><g
               id="g6308"
               style=""><circle
                 style="fill:#f0ab00"
                 id="circle6310"
                 r="0.3"
                 cy="72.1"
                 cx="31.9" /></g><g
               id="g6312"
               style=""><circle
                 style="fill:#f0ab00"
                 id="circle6314"
                 r="0.3"
                 cy="72.6"
                 cx="30.3" /></g><g
               id="g6316"
               style=""><circle
                 style="fill:#f0ab00"
                 id="circle6318"
                 r="0.3"
                 cy="73.7"
                 cx="28.1" /></g><g
               id="g6320"
               style=""><circle
                 style="fill:#f0ab00"
                 id="circle6322"
                 r="0.3"
                 cy="39"
                 cx="107.8" /></g><g
               id="g6324"
               style=""><circle
                 style="fill:#f0ab00"
                 id="circle6326"
                 r="0.3"
                 cy="48.3"
                 cx="105.9" /></g><g
               id="g6328"
               style=""><circle
                 style="fill:#f0ab00"
                 id="circle6330"
                 r="0.3"
                 cy="52"
                 cx="99.2" /></g><g
               id="g6332"
               style=""><circle
                 style="fill:#f0ab00"
                 id="circle6334"
                 r="0.3"
                 cy="45.6"
                 cx="97.3" /></g><g
               id="g6336"
               style=""><circle
                 style="fill:#f0ab00"
                 id="circle6338"
                 r="0.3"
                 cy="38.3"
                 cx="98.6" /></g><g
               id="g6340"
               style=""><circle
                 style="fill:#f0ab00"
                 id="circle6342"
                 r="0.3"
                 cy="43"
                 cx="113.8" /></g><g
               id="g6344"
               style=""><circle
                 style="fill:#f0ab00"
                 id="circle6346"
                 r="0.3"
                 cy="46.2"
                 cx="110.9" /></g><g
               id="g6348"
               style=""><circle
                 style="fill:#f0ab00"
                 id="circle6350"
                 r="0.3"
                 cy="37.2"
                 cx="114.2" /></g><g
               id="g6352"
               style=""><circle
                 style="fill:#f0ab00"
                 id="circle6354"
                 r="0.3"
                 cy="39"
                 cx="118.8" /></g><g
               id="g6356"
               style=""><circle
                 style="fill:#f0ab00"
                 id="circle6358"
                 r="0.3"
                 cy="40.9"
                 cx="117" /></g><g
               id="g6360"
               style=""><circle
                 style="fill:#f0ab00"
                 id="circle6362"
                 r="0.3"
                 cy="41.2"
                 cx="114" /></g><g
               id="g6364"
               style=""><circle
                 style="fill:#f0ab00"
                 id="circle6366"
                 r="0.3"
                 cy="48.2"
                 cx="100.9" /></g><g
               id="g6368"
               style=""><circle
                 style="fill:#f0ab00"
                 id="circle6370"
                 r="0.3"
                 cy="69.9"
                 cx="74.7" /></g><g
               id="g6372"
               style=""><circle
                 style="fill:#f0ab00"
                 id="circle6374"
                 r="0.3"
                 cy="102.4"
                 cx="46.8" /></g><g
               id="g6376"
               style=""><circle
                 style="fill:#f0ab00"
                 id="circle6378"
                 r="0.3"
                 cy="122.5"
                 cx="38.1" /></g><g
               id="g6380"
               style=""><circle
                 style="fill:#f0ab00"
                 id="circle6382"
                 r="0.3"
                 cy="36.6"
                 cx="120.9" /></g><g
               id="g6384"
               style=""><circle
                 style="fill:#f0ab00"
                 id="circle6386"
                 r="0.3"
                 cy="38.4"
                 cx="117.4" /></g><g
               id="g6388"
               style=""><circle
                 style="fill:#f0ab00"
                 id="circle6390"
                 r="0.3"
                 cy="39.1"
                 cx="113.2" /></g><g
               id="g6392"
               style=""><circle
                 style="fill:#f0ab00"
                 id="circle6394"
                 r="0.3"
                 cy="36.1"
                 cx="110.5" /></g><g
               id="g6396"
               style=""><circle
                 style="fill:#f0ab00"
                 id="circle6398"
                 r="0.3"
                 cy="33.7"
                 cx="117.1" /></g><g
               id="g6400"
               style=""><circle
                 style="fill:#f0ab00"
                 id="circle6402"
                 r="0.3"
                 cy="38"
                 cx="112" /></g><g
               id="g6404"
               style=""><circle
                 style="fill:#f0ab00"
                 id="circle6406"
                 r="0.3"
                 cy="43.1"
                 cx="102.8" /></g><g
               id="g6408"
               style=""><circle
                 style="fill:#f0ab00"
                 id="circle6410"
                 r="0.3"
                 cy="40.5"
                 cx="101.8" /></g><g
               id="g6412"
               style=""><circle
                 style="fill:#f0ab00"
                 id="circle6414"
                 r="0.3"
                 cy="41.7"
                 cx="103.7" /></g><g
               id="g6416"
               style=""><circle
                 style="fill:#f0ab00"
                 id="circle6418"
                 r="0.3"
                 cy="42.7"
                 cx="99.9" /></g><g
               id="g6420"
               style=""><circle
                 style="fill:#f0ab00"
                 id="circle6422"
                 r="0.3"
                 cy="42.2"
                 cx="97.5" /></g><g
               id="g6424"
               style=""><circle
                 style="fill:#f0ab00"
                 id="circle6426"
                 r="0.3"
                 cy="41.6"
                 cx="84.4" /></g><g
               id="g6428"
               style=""><circle
                 style="fill:#f0ab00"
                 id="circle6430"
                 r="0.3"
                 cy="47.3"
                 cx="65.8" /></g><g
               id="g6432"
               style=""><circle
                 style="fill:#f0ab00"
                 id="circle6434"
                 r="0.3"
                 cy="47.4"
                 cx="45.5" /></g><g
               id="g6436"
               style=""><circle
                 style="fill:#f0ab00"
                 id="circle6438"
                 r="0.3"
                 cy="39.1"
                 cx="32.6" /></g><g
               id="g6440"
               style=""><circle
                 style="fill:#f0ab00"
                 id="circle6442"
                 r="0.3"
                 cy="36.5"
                 cx="25.4" /></g><g
               id="g6444"
               style=""><circle
                 style="fill:#f0ab00"
                 id="circle6446"
                 r="0.3"
                 cy="31.7"
                 cx="128.5" /></g><g
               id="g6448"
               style=""><circle
                 style="fill:#f0ab00"
                 id="circle6450"
                 r="0.3"
                 cy="33"
                 cx="128.3" /></g><g
               id="g6452"
               style=""><circle
                 style="fill:#f0ab00"
                 id="circle6454"
                 r="0.3"
                 cy="33.2"
                 cx="126.1" /></g><g
               id="g6456"
               style=""><circle
                 style="fill:#f0ab00"
                 id="circle6458"
                 r="0.3"
                 cy="31.7"
                 cx="125.2" /></g><g
               id="g6460"
               style=""><circle
                 style="fill:#f0ab00"
                 id="circle6462"
                 r="0.3"
                 cy="33.4"
                 cx="124.9" /></g><g
               id="g6464"
               style=""><circle
                 style="fill:#f0ab00"
                 id="circle6466"
                 r="0.3"
                 cy="32"
                 cx="122.4" /></g><g
               id="g6468"
               style=""><circle
                 style="fill:#f0ab00"
                 id="circle6470"
                 r="0.3"
                 cy="36.6"
                 cx="123.3" /></g><g
               id="g6472"
               style=""><circle
                 style="fill:#f0ab00"
                 id="circle6474"
                 r="0.3"
                 cy="33.6"
                 cx="120.2" /></g><g
               id="g6476"
               style=""><circle
                 style="fill:#f0ab00"
                 id="circle6478"
                 r="0.3"
                 cy="34.8"
                 cx="119" /></g><g
               id="g6480"
               style=""><circle
                 style="fill:#f0ab00"
                 id="circle6482"
                 r="0.3"
                 cy="36.6"
                 cx="117.5" /></g><g
               id="g6484"
               style=""><circle
                 style="fill:#f0ab00"
                 id="circle6486"
                 r="0.3"
                 cy="38.9"
                 cx="115.9" /></g><g
               id="g6488"
               style=""><circle
                 style="fill:#f0ab00"
                 id="circle6490"
                 r="0.3"
                 cy="41.1"
                 cx="112.2" /></g><g
               id="g6492"
               style=""><circle
                 style="fill:#f0ab00"
                 id="circle6494"
                 r="0.3"
                 cy="41"
                 cx="108.7" /></g><g
               id="g6496"
               style=""><circle
                 style="fill:#f0ab00"
                 id="circle6498"
                 r="0.3"
                 cy="42"
                 cx="107.4" /></g><g
               id="g6500"
               style=""><circle
                 style="fill:#f0ab00"
                 id="circle6502"
                 r="0.3"
                 cy="43.6"
                 cx="105.3" /></g><g
               id="g6504"
               style=""><circle
                 style="fill:#f0ab00"
                 id="circle6506"
                 r="0.3"
                 cy="45.2"
                 cx="103" /></g><g
               id="g6508"
               style=""><circle
                 style="fill:#f0ab00"
                 id="circle6510"
                 r="0.3"
                 cy="45.6"
                 cx="100.8" /></g><g
               id="g6512"
               style=""><circle
                 style="fill:#f0ab00"
                 id="circle6514"
                 r="0.3"
                 cy="47.5"
                 cx="97.4" /></g><g
               id="g6516"
               style=""><circle
                 style="fill:#f0ab00"
                 id="circle6518"
                 r="0.3"
                 cy="48.9"
                 cx="95.9" /></g><g
               id="g6520"
               style=""><circle
                 style="fill:#f0ab00"
                 id="circle6522"
                 r="0.3"
                 cy="51.4"
                 cx="93.8" /></g><g
               id="g6524"
               style=""><circle
                 style="fill:#f0ab00"
                 id="circle6526"
                 r="0.3"
                 cy="59.7"
                 cx="84.8" /></g><g
               id="g6528"
               style=""><circle
                 style="fill:#f0ab00"
                 id="circle6530"
                 r="0.3"
                 cy="73"
                 cx="70.1" /></g><g
               id="g6532"
               style=""><circle
                 style="fill:#f0ab00"
                 id="circle6534"
                 r="0.3"
                 cy="87.2"
                 cx="58.2" /></g><g
               id="g6536"
               style=""><circle
                 style="fill:#f0ab00"
                 id="circle6538"
                 r="0.3"
                 cy="101.3"
                 cx="50" /></g><g
               id="g6540"
               style=""><circle
                 style="fill:#f0ab00"
                 id="circle6542"
                 r="0.3"
                 cy="64.9"
                 cx="65.7" /></g><g
               id="g6544"
               style=""><circle
                 style="fill:#f0ab00"
                 id="circle6546"
                 r="0.3"
                 cy="77.4"
                 cx="46.7" /></g><g
               id="g6548"
               style=""><circle
                 style="fill:#f0ab00"
                 id="circle6550"
                 r="0.3"
                 cy="73.7"
                 cx="58.3" /></g><g
               id="g6552"
               style=""><circle
                 style="fill:#f0ab00"
                 id="circle6554"
                 r="0.3"
                 cy="49.1"
                 cx="55" /></g><g
               id="g6556"
               style=""><circle
                 style="fill:#f0ab00"
                 id="circle6558"
                 r="0.3"
                 cy="116.5"
                 cx="47.4" /></g><g
               id="g6560"
               style=""><circle
                 style="fill:#f0ab00"
                 id="circle6562"
                 r="0.3"
                 cy="107.5"
                 cx="29.2" /></g><g
               id="g6564"
               style=""><circle
                 style="fill:#f0ab00"
                 id="circle6566"
                 r="0.3"
                 cy="35.8"
                 cx="2.2" /></g><g
               id="g6568"
               style=""><circle
                 style="fill:#f0ab00"
                 id="circle6570"
                 r="0.3"
                 cy="61.4"
                 cx="15" /></g><g
               id="g6572"
               style=""><circle
                 style="fill:#f0ab00"
                 id="circle6574"
                 r="0.3"
                 cy="29.4"
                 cx="132.9" /></g><g
               id="g6576"
               style=""><circle
                 style="fill:#f0ab00"
                 id="circle6578"
                 r="0.3"
                 cy="28"
                 cx="134.5" /></g><g
               id="g6580"
               style=""><circle
                 style="fill:#f0ab00"
                 id="circle6582"
                 r="0.3"
                 cy="30.7"
                 cx="130.9" /></g><g
               id="g6584"
               style=""><circle
                 style="fill:#f0ab00"
                 id="circle6586"
                 r="0.3"
                 cy="29.8"
                 cx="129.9" /></g><g
               id="g6588"
               style=""><circle
                 style="fill:#f0ab00"
                 id="circle6590"
                 r="0.3"
                 cy="31.8"
                 cx="127.3" /></g><g
               id="g6592"
               style=""><circle
                 style="fill:#f0ab00"
                 id="circle6594"
                 r="0.3"
                 cy="35.4"
                 cx="122.3" /></g><g
               id="g6596"
               style=""><circle
                 style="fill:#f0ab00"
                 id="circle6598"
                 r="0.3"
                 cy="35.1"
                 cx="125.1" /></g><g
               id="g6600"
               style=""><circle
                 style="fill:#f0ab00"
                 id="circle6602"
                 r="0.3"
                 cy="33.6"
                 cx="123.1" /></g><g
               id="g6604"
               style=""><circle
                 style="fill:#f0ab00"
                 id="circle6606"
                 r="0.3"
                 cy="32.6"
                 cx="126.8" /></g><g
               id="g6608"
               style=""><circle
                 style="fill:#f0ab00"
                 id="circle6610"
                 r="0.3"
                 cy="28.6"
                 cx="133.6" /></g><g
               id="g6612"
               style=""><circle
                 style="fill:#f0ab00"
                 id="circle6614"
                 r="0.3"
                 cy="27.9"
                 cx="132.9" /></g><g
               id="g6616"
               style=""><circle
                 style="fill:#f0ab00"
                 id="circle6618"
                 r="0.3"
                 cy="30.6"
                 cx="129" /></g><g
               id="g6620"
               style=""><circle
                 style="fill:#f0ab00"
                 id="circle6622"
                 r="0.3"
                 cy="25.8"
                 cx="138.4" /></g><g
               id="g6624"
               style=""><circle
                 style="fill:#f0ab00"
                 id="circle6626"
                 r="0.3"
                 cy="27"
                 cx="137.1" /></g><g
               id="g6628"
               style=""><circle
                 style="fill:#f0ab00"
                 id="circle6630"
                 r="0.3"
                 cy="27.2"
                 cx="135.3" /></g><g
               id="g6632"
               style=""><circle
                 style="fill:#f0ab00"
                 id="circle6634"
                 r="0.3"
                 cy="68.6"
                 cx="89.1" /></g><g
               id="g6636"
               style=""><circle
                 style="fill:#f0ab00"
                 id="circle6638"
                 r="0.3"
                 cy="69.8"
                 cx="82.1" /></g><g
               id="g6640"
               style=""><circle
                 style="fill:#f0ab00"
                 id="circle6642"
                 r="0.3"
                 cy="40.2"
                 cx="45.8" /></g><g
               id="g6644"
               style=""><circle
                 style="fill:#f0ab00"
                 id="circle6646"
                 r="0.3"
                 cy="54.8"
                 cx="51.1" /></g><g
               id="g6648"
               style=""><circle
                 style="fill:#f0ab00"
                 id="circle6650"
                 r="0.3"
                 cy="47.6"
                 cx="76.1" /></g><g
               id="g6652"
               style=""><circle
                 style="fill:#f0ab00"
                 id="circle6654"
                 r="0.3"
                 cy="49.6"
                 cx="89.9" /></g><g
               id="g6656"
               style=""><circle
                 style="fill:#f0ab00"
                 id="circle6658"
                 r="0.3"
                 cy="39.3"
                 cx="91.2" /></g></g></g></g></g><radialGradient
       id="SVGID_102_"
       cx="96.766"
       cy="-154.29"
       r="515.44"
       gradientTransform="matrix(0,-0.1587,0.282,0,95.33,56.171)"
       gradientUnits="userSpaceOnUse"><stop
         offset="0"
         style="stop-color:#231F20;stop-opacity:0"
         id="stop6661" /><stop
         offset="1"
         style="stop-color:#231F20;stop-opacity:0.75"
         id="stop6663" /></radialGradient></g><g
     id="Layer_2"
     transform="translate(37.5,27)" /></svg>