<svg xmlns="http://www.w3.org/2000/svg" xmlns:xlink="http://www.w3.org/1999/xlink" viewBox="0 0 137.872 137.838" xml:space="preserve">
<polygon display="none" fill="#E22434" points="132.094,324.925 -5.778,462.768 132.094,462.768 "/>
<path id="path4380_2_" display="none" opacity="0.9" fill="#D6826B" enable-background="new    " d="M-0.106,462.763h132.2V330.544
	L-0.106,462.763z"/>
<path id="t-pattern_1_" display="none" fill="none" stroke="#E8B4A2" stroke-width="0.625" stroke-linecap="square" stroke-miterlimit="10" d="
	M3.404,459.063h2.797v-2.799 M2.005,460.461h5.549v-5.596 M0.653,461.859h8.299v-8.394 M14.454,456.264v2.8h2.751 M13.056,454.865
	v5.596h5.548 M11.75,453.467v8.394h8.253 M10.352,462.326v-10.258 M14.454,447.871h2.751v-2.797 M13.056,449.27h5.548v-5.594
	 M11.75,450.67h8.253v-8.393 M28.303,456.264h-2.752v2.8 M29.701,454.865h-5.549v5.596 M31.1,453.467h-8.299v8.394 M25.551,445.074
	v2.797h2.752 M24.152,443.676v5.594h5.549 M22.754,442.277v8.393h8.253 M17.252,459.063v-2.799h-2.705 M18.604,460.461v-5.596
	h-5.548 M20.003,461.859v-8.394H11.75 M21.402,462.326v-21.449 M32.498,452.068H10.352 M25.551,436.867h2.752v-2.703 M24.152,438.08
	h5.549v-5.316 M22.801,439.479H31.1v-8.065 M39.399,445.074h-2.704v2.797 M40.752,443.676h-5.549v5.594 M42.15,442.277h-8.253v8.393
	 M36.602,434.164v2.703h2.752 M35.203,432.764v5.316h5.549 M33.897,431.365v8.112h8.253 M28.35,447.871v-2.797h-2.752
	 M29.701,449.27v-5.594h-5.549 M31.1,450.67v-8.393h-8.299 M32.498,452.068v-22.103 M43.549,440.877H21.402 M36.695,425.771h2.704
	v-2.753 M35.297,427.17h5.502v-5.549 M33.897,428.568h8.253v-8.3 M50.496,434.07h-2.75v2.75 M51.896,432.672h-5.549v5.408
	 M53.295,431.273h-8.301v8.204 M47.746,423.02v2.753h2.75 M46.347,421.621v5.549h5.549 M44.948,420.224v8.251h8.3 M39.399,436.82
	v-2.797h-2.704 M40.799,438.08v-5.408h-5.502 M42.197,439.479v-8.112h-8.253 M43.596,440.877v-22.053 M54.646,429.967H32.498
	 M47.746,414.722h2.75v-2.705 M46.347,416.071h5.549v-5.549 M44.948,417.472h8.3v-8.253 M61.547,423.02h-2.704v2.753
	 M62.945,421.621h-5.502v5.549 M64.345,420.224h-8.253v8.251 M58.843,411.922v2.752h2.704 M57.443,410.522v5.55h5.502
	 M50.496,425.771v-2.753h-2.75 M51.896,427.17v-5.549h-5.549 M53.295,428.568v-8.3h-8.301 M72.645,411.922h-2.751v2.752
	 M74.043,410.522h-5.549v5.55 M75.441,409.125h-8.299v8.299 M69.894,400.873v2.75h2.751 M68.494,399.474v5.549h5.549
	 M67.096,398.074v8.254h8.299 M61.547,414.674v-2.752h-2.704 M62.945,416.071v-5.549h-5.502 M64.345,417.472v-8.253h-8.3v8.253
	h8.254 M65.744,418.824v-22.148 M76.793,407.819H54.646 M70.034,392.479h2.704v-2.797 M68.635,393.832h5.502v-5.549 M67.236,395.229
	h8.252v-8.299 M83.834,400.731h-2.75v2.75 M85.233,399.334h-5.548v5.549 M86.586,398.026h-8.301v8.255 M81.038,389.683v2.75h2.75
	 M79.686,388.33v5.548h5.548 M78.286,386.931v8.299h8.301 M72.738,403.528v-2.702h-2.704 M74.137,404.883v-5.549h-5.502
	 M75.536,406.281v-8.255h-8.253 M76.887,407.681v-22.148 M87.984,396.629H65.837 M81.038,381.382h2.75v-2.704 M79.686,382.781h5.548
	v-5.503 M78.286,384.133h8.301v-8.299 M94.885,389.683h-2.704v2.75 M96.284,388.33h-5.502v5.548 M97.637,386.931h-8.254v8.299
	 M92.088,378.584v2.751h2.75 M90.782,377.278v5.503h5.502 M89.383,375.833v8.299h8.254 M83.834,392.479v-2.797h-2.75
	 M85.233,393.832v-5.549h-5.548 M86.586,395.229v-8.299h-8.301 M87.984,396.629v-22.194 M99.036,385.532H76.887 M92.181,370.332
	h2.704v-2.751 M90.782,371.638h5.502v-5.503 M89.383,373.036h8.254v-8.253 M105.982,378.584h-2.751v2.751 M107.381,377.187h-5.549
	v5.549 M108.733,375.833h-8.3v8.299 M103.185,367.534v2.705h2.751 M101.833,366.183v5.549h5.549 M100.434,364.783v8.252h8.3
	 M94.885,381.382v-2.705h-2.704 M96.284,382.733v-5.549h-5.502 M97.683,384.133v-8.299H89.43 M99.036,385.532v-22.147
	 M110.133,374.435H87.984 M103.277,359.142h2.752v-2.752 M101.973,360.54h5.502v-5.549 M100.575,361.847h8.252v-8.254
	 M117.172,367.394h-2.75v2.752 M118.525,366.042h-5.549v5.548 M119.924,364.644h-8.301v8.299 M114.375,356.39v2.752h2.75
	 M112.977,354.991v5.549h5.549 M111.624,353.593v8.254h8.301 M106.077,370.192v-2.752h-2.705 M107.428,371.59v-5.548h-5.549
	 M108.827,372.942v-8.299h-8.252 M110.226,374.341v-22.146 M121.322,363.244H99.174 M114.375,348.044h2.75v-2.751 M112.977,349.442
	h5.549v-5.549 M111.624,350.842h8.301v-8.253 M128.223,356.39h-2.703v2.752 M129.575,354.991h-5.548v5.549 M130.975,353.593h-8.254
	v8.254 M125.426,345.293v2.751h2.751 M124.027,343.894v5.549h5.548 M122.721,342.496v8.299h8.254 M117.172,359.142v-2.752h-2.75
	 M118.525,360.54v-5.549h-5.549 M119.924,361.847v-8.254h-8.301 M121.322,363.244v-22.147 M132.374,352.194h-22.147
	 M125.426,336.994h2.751v-2.751 M124.12,338.392h5.502v-5.548 M122.721,339.698h8.254v-8.254 M128.223,348.044v-2.751h-2.703
	 M129.622,349.442v-5.549h-5.502 M130.975,350.795v-8.299h-8.254 M132.374,352.194v-22.147 M132.374,341.097h-11.052
	 M54.646,429.967v-22.147 M65.697,418.869H43.549 M58.843,403.623h2.704v-2.75 M57.443,405.021h5.502v-5.549 M56.045,406.42h8.254
	v-8.299"/>
<g>
	<g>
		<defs>
			<polygon id="SVGID_1_" points="137.872,0.089 0.093,137.838 137.872,137.838 			"/>
		</defs>
		<clipPath id="SVGID_2_">
			<use xlink:href="#SVGID_1_"  overflow="visible"/>
		</clipPath>
		<g clip-path="url(#SVGID_2_)">
			<g>
				<rect x="136.786" y="0.766" fill="#a30000" width="27.431" height="0.5"/>
				<rect x="150.252" y="-12.698" fill="#a30000" width="0.5" height="27.43"/>
				<polygon fill="#a30000" points="149.038,13.019 148.538,13.019 148.538,2.981 138.5,2.981 138.5,2.481 149.038,2.481 				"/>
				<polygon fill="#a30000" points="146.825,11.304 146.823,4.695 140.215,4.695 140.215,4.195 147.323,4.195 147.325,11.304 				
					"/>
				<polygon fill="#a30000" points="145.608,9.591 145.108,9.591 145.108,6.411 141.929,6.411 141.929,5.911 145.608,5.911 				"/>
				<polygon fill="#a30000" points="162.503,-0.448 151.966,-0.448 151.966,-10.985 152.466,-10.985 152.466,-0.948 162.503,-0.948 
									"/>
				<polygon fill="#a30000" points="160.788,-2.159 153.679,-2.159 153.68,-9.27 154.18,-9.27 154.179,-2.659 160.788,-2.659 				
					"/>
				<polygon fill="#a30000" points="155.395,-3.874 155.395,-7.555 155.895,-7.555 155.895,-4.374 159.075,-4.376 159.075,-3.876 
									"/>
				<polygon fill="#a30000" points="152.466,13.019 151.966,13.019 151.966,2.481 162.503,2.481 162.503,2.981 152.466,2.981 				
					"/>
				<polygon fill="#a30000" points="154.18,11.304 153.68,11.304 153.68,4.195 160.788,4.196 160.788,4.696 154.18,4.695 				"/>
				<polygon fill="#a30000" points="155.895,9.591 155.395,9.591 155.395,5.911 159.075,5.911 159.075,6.411 155.895,6.411 				"/>
				<polygon fill="#a30000" points="149.038,-0.448 138.5,-0.448 138.5,-0.948 148.538,-0.948 148.538,-10.985 149.038,-10.985 				
					"/>
				<polygon fill="#a30000" points="147.323,-2.159 140.215,-2.161 140.215,-2.661 146.823,-2.659 146.821,-9.27 147.321,-9.27 				
					"/>
				<polygon fill="#a30000" points="145.608,-3.876 141.929,-3.876 141.929,-4.376 145.108,-4.376 145.108,-7.555 145.608,-7.555 
									"/>
				<rect x="123.048" y="14.503" fill="#a30000" width="27.435" height="0.5"/>
				<rect x="136.514" y="1.037" fill="#a30000" width="0.5" height="27.433"/>
				<polygon fill="#a30000" points="135.301,26.755 134.801,26.755 134.801,16.718 124.764,16.718 124.764,16.218 135.301,16.218 
									"/>
				<polygon fill="#a30000" points="133.586,25.04 133.086,25.04 133.086,18.433 126.479,18.433 126.479,17.933 133.586,17.933 				
					"/>
				<polygon fill="#a30000" points="131.874,23.325 131.374,23.325 131.374,20.146 128.194,20.147 128.194,19.647 131.874,19.646 
									"/>
				<polygon fill="#a30000" points="148.768,13.288 138.231,13.288 138.231,2.753 138.731,2.753 138.731,12.788 148.768,12.788 				
					"/>
				<polygon fill="#a30000" points="147.051,11.574 139.946,11.573 139.946,4.468 140.446,4.468 140.446,11.073 147.051,11.074 				
					"/>
				<polygon fill="#a30000" points="145.338,9.859 141.659,9.859 141.659,6.181 142.159,6.181 142.159,9.359 145.338,9.359 				"/>
				<polygon fill="#a30000" points="138.731,26.755 138.231,26.755 138.231,16.218 148.768,16.218 148.768,16.718 138.731,16.718 
									"/>
				<polygon fill="#a30000" points="140.444,25.04 139.944,25.04 139.944,17.933 147.052,17.931 147.052,18.431 140.444,18.433 				
					"/>
				<polygon fill="#a30000" points="142.159,23.325 141.659,23.325 141.659,19.647 145.338,19.646 145.338,20.146 142.159,20.147 
									"/>
				<polygon fill="#a30000" points="135.301,13.288 124.764,13.288 124.764,12.788 134.801,12.788 134.801,2.753 135.301,2.753 				
					"/>
				<polygon fill="#a30000" points="133.587,11.575 126.479,11.574 126.479,11.074 133.087,11.075 133.087,4.466 133.587,4.466 				
					"/>
				<polygon fill="#a30000" points="131.874,9.859 128.194,9.859 128.194,9.359 131.374,9.359 131.374,6.181 131.874,6.181 				"/>
				<rect x="109.336" y="28.219" fill="#a30000" width="27.428" height="0.5"/>
				<rect x="122.799" y="14.753" fill="#a30000" width="0.5" height="27.432"/>
				<polygon fill="#a30000" points="121.087,40.468 121.086,30.433 111.048,30.433 111.048,29.933 121.586,29.933 121.587,40.468 
									"/>
				<polygon fill="#a30000" points="119.374,38.755 119.372,32.147 112.764,32.146 112.764,31.646 119.872,31.647 119.874,38.755 
									"/>
				<polygon fill="#a30000" points="118.157,37.04 117.657,37.04 117.657,33.862 114.477,33.862 114.477,33.362 118.157,33.362 				
					"/>
				<polygon fill="#a30000" points="135.051,27.005 124.514,27.005 124.514,16.468 125.014,16.468 125.014,26.505 135.051,26.505 
									"/>
				<polygon fill="#a30000" points="133.336,25.29 126.229,25.29 126.229,18.183 126.729,18.183 126.729,24.79 133.336,24.79 				
					"/>
				<polygon fill="#a30000" points="131.624,23.575 127.944,23.575 127.944,19.897 128.444,19.897 128.444,23.075 131.624,23.075 
									"/>
				<polygon fill="#a30000" points="125.014,40.468 124.514,40.468 124.514,29.933 135.051,29.933 135.051,30.433 125.014,30.433 
									"/>
				<polygon fill="#a30000" points="126.729,38.755 126.229,38.755 126.229,31.646 133.336,31.649 133.336,32.149 126.729,32.146 
									"/>
				<polygon fill="#a30000" points="128.444,37.042 127.944,37.042 127.944,33.362 131.624,33.362 131.624,33.862 128.444,33.862 
									"/>
				<polygon fill="#a30000" points="121.586,27.005 111.048,27.005 111.048,26.505 121.086,26.505 121.086,16.468 121.586,16.468 
									"/>
				<polygon fill="#a30000" points="119.874,25.29 112.763,25.29 112.763,24.79 119.374,24.79 119.37,18.183 119.87,18.183 				"/>
				<polygon fill="#a30000" points="118.157,23.575 114.477,23.575 114.477,23.075 117.657,23.075 117.657,19.896 118.157,19.896 
									"/>
			</g>
			<g>
				<rect x="95.491" y="42.063" fill="#a30000" width="27.432" height="0.5"/>
				<rect x="108.956" y="28.597" fill="#a30000" width="0.5" height="27.432"/>
				<polygon fill="#a30000" points="107.741,54.314 107.241,54.314 107.241,44.278 97.205,44.278 97.205,43.778 107.741,43.778 				
					"/>
				<polygon fill="#a30000" points="106.026,52.601 105.526,52.601 105.526,45.992 98.919,45.992 98.919,45.492 106.026,45.492 				
					"/>
				<polygon fill="#a30000" points="104.313,50.886 103.813,50.886 103.813,47.708 100.632,47.708 100.632,47.208 104.313,47.208 
									"/>
				<polygon fill="#a30000" points="121.208,40.849 110.67,40.849 110.67,30.313 111.17,30.313 111.17,40.349 121.208,40.349 				
					"/>
				<polygon fill="#a30000" points="119.491,39.136 112.382,39.136 112.384,32.027 112.884,32.027 112.882,38.636 119.491,38.636 
									"/>
				<polygon fill="#a30000" points="117.778,37.421 114.099,37.421 114.099,33.741 114.599,33.741 114.599,36.921 117.778,36.921 
									"/>
				<polygon fill="#a30000" points="111.17,54.314 110.67,54.314 110.67,43.778 121.208,43.778 121.208,44.278 111.17,44.278 				
					"/>
				<polygon fill="#a30000" points="112.884,52.601 112.384,52.601 112.384,45.492 119.491,45.493 119.491,45.993 112.884,45.992 
									"/>
				<polygon fill="#a30000" points="114.599,50.886 114.099,50.886 114.099,47.208 117.778,47.208 117.778,47.708 114.599,47.708 
									"/>
				<polygon fill="#a30000" points="107.741,40.849 97.205,40.849 97.205,40.349 107.241,40.349 107.241,30.313 107.741,30.313 				
					"/>
				<polygon fill="#a30000" points="106.026,39.136 98.919,39.134 98.919,38.634 105.526,38.636 105.526,32.027 106.026,32.027 				
					"/>
				<polygon fill="#a30000" points="104.313,37.421 100.632,37.421 100.632,36.921 103.813,36.921 103.813,33.741 104.313,33.741 
									"/>
				<rect x="81.753" y="55.8" fill="#a30000" width="27.431" height="0.5"/>
				<rect x="95.218" y="42.335" fill="#a30000" width="0.5" height="27.432"/>
				<polygon fill="#a30000" points="94.006,68.052 93.506,68.052 93.506,58.013 83.468,58.013 83.468,57.513 94.006,57.513 				"/>
				<polygon fill="#a30000" points="92.29,66.337 91.79,66.337 91.79,59.729 85.181,59.729 85.181,59.229 92.29,59.229 				"/>
				<polygon fill="#a30000" points="90.577,64.622 90.077,64.622 90.077,61.442 86.897,61.442 86.897,60.942 90.577,60.942 				"/>
				<polygon fill="#a30000" points="107.47,54.587 96.934,54.585 96.934,44.048 97.434,44.048 97.434,54.085 107.47,54.087 				"/>
				<polygon fill="#a30000" points="105.756,52.87 98.649,52.87 98.649,45.763 99.149,45.763 99.149,52.37 105.756,52.37 				"/>
				<polygon fill="#a30000" points="104.042,51.155 100.364,51.155 100.364,47.477 100.864,47.477 100.864,50.655 104.042,50.655 
									"/>
				<polygon fill="#a30000" points="97.434,68.05 96.934,68.05 96.934,57.513 107.47,57.513 107.47,58.013 97.434,58.013 				"/>
				<polygon fill="#a30000" points="99.147,66.337 98.647,66.337 98.649,59.229 105.756,59.229 105.756,59.729 99.149,59.729 				
					"/>
				<polygon fill="#a30000" points="100.864,64.622 100.364,64.622 100.364,60.942 104.042,60.942 104.042,61.442 100.864,61.442 
									"/>
				<polygon fill="#a30000" points="94.006,54.587 83.468,54.585 83.468,54.085 93.506,54.087 93.506,44.048 94.006,44.048 				"/>
				<polygon fill="#a30000" points="92.29,52.871 85.181,52.871 85.181,52.371 91.79,52.371 91.79,45.763 92.29,45.763 				"/>
				<polygon fill="#a30000" points="90.577,51.155 86.897,51.155 86.897,50.655 90.077,50.655 90.077,47.477 90.577,47.477 				"/>
				<rect x="68.04" y="69.516" fill="#a30000" width="27.429" height="0.5"/>
				<rect x="81.505" y="56.05" fill="#a30000" width="0.5" height="27.43"/>
				<polygon fill="#a30000" points="79.792,81.767 79.79,71.729 69.752,71.729 69.752,71.229 80.29,71.229 80.292,81.767 				"/>
				<polygon fill="#a30000" points="78.077,80.052 78.075,73.444 71.468,73.444 71.468,72.944 78.575,72.944 78.577,80.052 				"/>
				<polygon fill="#a30000" points="76.86,78.337 76.36,78.337 76.36,75.157 73.181,75.158 73.181,74.658 76.86,74.657 				"/>
				<polygon fill="#a30000" points="93.756,68.302 83.218,68.3 83.218,57.763 83.718,57.763 83.718,67.8 93.756,67.802 				"/>
				<polygon fill="#a30000" points="92.04,66.587 84.931,66.587 84.931,59.479 85.431,59.479 85.431,66.087 92.04,66.087 				"/>
				<polygon fill="#a30000" points="90.327,64.872 86.647,64.872 86.647,61.192 87.147,61.192 87.147,64.372 90.327,64.372 				"/>
				<polygon fill="#a30000" points="83.718,81.767 83.218,81.767 83.218,71.229 93.756,71.229 93.756,71.729 83.718,71.729 				"/>
				<polygon fill="#a30000" points="85.433,80.052 84.933,80.052 84.933,72.944 92.04,72.945 92.04,73.445 85.433,73.444 				"/>
				<polygon fill="#a30000" points="87.147,78.339 86.647,78.339 86.647,74.658 90.327,74.658 90.327,75.158 87.147,75.158 				"/>
				<polygon fill="#a30000" points="80.29,68.3 69.752,68.3 69.752,67.8 79.79,67.8 79.79,57.763 80.29,57.763 				"/>
				<polygon fill="#a30000" points="78.577,66.587 71.466,66.587 71.466,66.087 78.077,66.087 78.075,59.479 78.575,59.479 				"/>
				<polygon fill="#a30000" points="76.86,64.872 73.181,64.872 73.181,64.372 76.36,64.372 76.36,61.192 76.86,61.192 				"/>
			</g>
			<g>
				<rect x="54.193" y="83.36" fill="#a30000" width="27.431" height="0.5"/>
				<rect x="67.659" y="69.896" fill="#a30000" width="0.5" height="27.43"/>
				<polygon fill="#a30000" points="66.444,95.611 65.944,95.611 65.944,85.574 55.908,85.574 55.908,85.074 66.444,85.074 				"/>
				<polygon fill="#a30000" points="64.73,93.896 64.23,93.896 64.23,87.288 57.624,87.288 57.624,86.788 64.73,86.788 				"/>
				<polygon fill="#a30000" points="63.016,92.181 62.516,92.181 62.516,89.003 59.337,89.003 59.337,88.503 63.016,88.503 				"/>
				<polygon fill="#a30000" points="79.911,82.146 69.375,82.146 69.375,71.609 69.875,71.609 69.875,81.646 79.911,81.646 				"/>
				<polygon fill="#a30000" points="78.196,80.431 71.087,80.431 71.087,73.324 71.587,73.324 71.587,79.931 78.196,79.931 				"/>
				<polygon fill="#a30000" points="76.483,78.716 72.801,78.716 72.802,75.037 73.302,75.037 73.301,78.216 76.483,78.216 				"/>
				<polygon fill="#a30000" points="69.875,95.611 69.375,95.611 69.375,85.074 79.911,85.075 79.911,85.575 69.875,85.574 				"/>
				<polygon fill="#a30000" points="71.587,93.896 71.087,93.896 71.088,86.788 78.196,86.79 78.196,87.29 71.588,87.288 				"/>
				<polygon fill="#a30000" points="73.302,92.181 72.802,92.181 72.802,88.503 76.483,88.503 76.483,89.003 73.302,89.003 				"/>
				<polygon fill="#a30000" points="66.444,82.146 55.908,82.146 55.908,81.646 65.944,81.646 65.944,71.609 66.444,71.609 				"/>
				<polygon fill="#a30000" points="64.73,80.431 57.622,80.431 57.622,79.931 64.23,79.931 64.229,73.324 64.729,73.324 				"/>
				<polygon fill="#a30000" points="63.016,78.716 59.337,78.716 59.337,78.216 62.516,78.216 62.516,75.037 63.016,75.037 				"/>
				<rect x="40.457" y="97.097" fill="#a30000" width="27.432" height="0.5"/>
				<rect x="53.923" y="83.632" fill="#a30000" width="0.5" height="27.431"/>
				<polygon fill="#a30000" points="52.709,109.348 52.209,109.348 52.209,99.31 42.172,99.31 42.172,98.81 52.709,98.81 				"/>
				<polygon fill="#a30000" points="50.993,107.633 50.493,107.633 50.493,101.024 43.885,101.025 43.885,100.525 50.993,100.524 
									"/>
				<polygon fill="#a30000" points="49.278,105.919 48.778,105.919 48.78,102.739 45.6,102.739 45.6,102.239 49.28,102.239 				"/>
				<polygon fill="#a30000" points="66.175,95.882 55.638,95.882 55.638,85.345 56.138,85.345 56.138,95.382 66.175,95.382 				"/>
				<polygon fill="#a30000" points="64.459,94.169 57.353,94.167 57.353,87.06 57.853,87.06 57.853,93.667 64.459,93.669 				"/>
				<polygon fill="#a30000" points="62.747,92.452 59.067,92.452 59.067,88.772 59.567,88.772 59.567,91.952 62.747,91.952 				"/>
				<polygon fill="#a30000" points="55.638,109.347 55.636,98.81 66.175,98.81 66.175,99.31 56.136,99.31 56.138,109.347 				"/>
				<polygon fill="#a30000" points="57.852,107.633 57.352,107.633 57.352,100.524 64.46,100.524 64.46,101.024 57.852,101.024 				
					"/>
				<polygon fill="#a30000" points="59.567,105.919 59.067,105.919 59.067,102.239 62.747,102.239 62.747,102.739 59.567,102.739 
									"/>
				<polygon fill="#a30000" points="52.709,95.882 42.172,95.882 42.172,95.382 52.209,95.382 52.209,85.343 52.709,85.343 				"/>
				<polygon fill="#a30000" points="50.993,94.169 43.885,94.169 43.885,93.669 50.493,93.669 50.494,87.058 50.994,87.058 				"/>
				<polygon fill="#a30000" points="49.28,92.453 45.6,92.452 45.6,91.952 48.78,91.953 48.78,88.772 49.28,88.772 				"/>
				<rect x="26.743" y="110.811" fill="#a30000" width="27.429" height="0.5"/>
				<rect x="40.208" y="97.347" fill="#a30000" width="0.5" height="27.429"/>
				<polygon fill="#a30000" points="38.993,123.063 38.493,123.063 38.493,113.025 28.458,113.025 28.458,112.525 38.993,112.525 
									"/>
				<polygon fill="#a30000" points="37.278,121.348 36.778,121.348 36.778,114.739 30.172,114.739 30.172,114.239 37.278,114.239 
									"/>
				<polygon fill="#a30000" points="35.564,119.633 35.064,119.633 35.064,116.453 31.885,116.453 31.885,115.953 35.564,115.953 
									"/>
				<polygon fill="#a30000" points="52.459,109.598 41.922,109.597 41.922,99.06 42.422,99.06 42.422,109.097 52.459,109.098 				
					"/>
				<polygon fill="#a30000" points="50.743,107.883 43.635,107.883 43.635,100.775 44.135,100.775 44.135,107.383 50.743,107.383 
									"/>
				<polygon fill="#a30000" points="49.028,106.169 45.35,106.169 45.35,102.489 45.85,102.489 45.85,105.669 49.028,105.669 				
					"/>
				<polygon fill="#a30000" points="42.422,123.063 41.922,123.063 41.922,112.525 52.459,112.525 52.459,113.025 42.422,113.025 
									"/>
				<polygon fill="#a30000" points="44.136,121.348 43.636,121.348 43.636,114.239 50.743,114.241 50.743,114.741 44.136,114.739 
									"/>
				<polygon fill="#a30000" points="45.85,119.633 45.35,119.633 45.35,115.955 49.03,115.955 49.03,116.455 45.85,116.455 				"/>
				<polygon fill="#a30000" points="38.993,109.597 28.457,109.597 28.457,109.097 38.493,109.097 38.493,99.06 38.993,99.06 				
					"/>
				<polygon fill="#a30000" points="37.278,107.883 30.171,107.883 30.171,107.383 36.778,107.383 36.777,100.774 37.277,100.774 
									"/>
				<polygon fill="#a30000" points="35.564,106.168 31.885,106.168 31.885,105.668 35.064,105.668 35.064,102.489 35.564,102.489 
									"/>
			</g>
			<g>
				<rect x="12.965" y="124.588" fill="#a30000" width="27.432" height="0.5"/>
				<rect x="26.431" y="111.123" fill="#a30000" width="0.5" height="27.431"/>
				<polygon fill="#a30000" points="25.216,136.839 24.716,136.839 24.716,126.802 14.681,126.802 14.681,126.302 25.216,126.302 
									"/>
				<polygon fill="#a30000" points="23.502,135.125 23.002,135.125 23.002,128.517 16.395,128.517 16.395,128.017 23.502,128.017 
									"/>
				<polygon fill="#a30000" points="21.786,133.41 21.286,133.41 21.286,130.231 18.109,130.231 18.109,129.731 21.786,129.731 				
					"/>
				<polygon fill="#a30000" points="38.681,123.373 28.145,123.373 28.145,112.838 28.645,112.838 28.645,122.873 38.681,122.873 
									"/>
				<polygon fill="#a30000" points="36.968,121.659 29.86,121.659 29.86,114.552 30.36,114.552 30.36,121.159 36.968,121.159 				
					"/>
				<polygon fill="#a30000" points="35.252,119.944 31.573,119.944 31.573,116.266 32.073,116.266 32.073,119.444 35.252,119.444 
									"/>
				<polygon fill="#a30000" points="28.645,136.839 28.145,136.839 28.145,126.302 38.681,126.304 38.681,126.804 28.645,126.802 
									"/>
				<polygon fill="#a30000" points="30.36,135.125 29.86,135.125 29.86,128.017 36.968,128.018 36.968,128.518 30.36,128.517 				
					"/>
				<polygon fill="#a30000" points="32.074,133.41 31.574,133.41 31.574,129.731 35.252,129.731 35.252,130.231 32.074,130.231 				
					"/>
				<polygon fill="#a30000" points="25.216,123.373 14.678,123.373 14.678,122.873 24.716,122.873 24.715,112.838 25.215,112.838 
									"/>
				<polygon fill="#a30000" points="23.502,121.659 16.395,121.659 16.395,121.159 23.002,121.159 23.002,114.552 23.502,114.552 
									"/>
				<polygon fill="#a30000" points="21.786,119.944 18.109,119.944 18.109,119.444 21.286,119.444 21.286,116.266 21.786,116.266 
									"/>
				<rect x="-0.771" y="138.324" fill="#a30000" width="27.432" height="0.5"/>
				<rect x="12.695" y="124.858" fill="#a30000" width="0.5" height="27.432"/>
				<polygon fill="#a30000" points="11.48,150.576 10.98,150.576 10.98,140.538 0.943,140.538 0.943,140.038 11.48,140.038 				"/>
				<polygon fill="#a30000" points="9.266,148.861 9.265,142.252 2.658,142.254 2.658,141.754 9.765,141.752 9.766,148.861 				"/>
				<polygon fill="#a30000" points="8.05,147.147 7.55,147.147 7.552,143.967 4.373,143.967 4.373,143.467 8.052,143.467 				"/>
				<polygon fill="#a30000" points="24.945,137.11 14.408,137.108 14.41,126.573 14.91,126.573 14.908,136.608 24.945,136.61 				
					"/>
				<polygon fill="#a30000" points="23.232,135.396 16.125,135.395 16.125,128.288 16.625,128.288 16.625,134.895 23.232,134.896 
									"/>
				<polygon fill="#a30000" points="21.516,133.68 17.838,133.68 17.838,130.001 18.338,130.001 18.338,133.18 21.516,133.18 				
					"/>
				<polygon fill="#a30000" points="14.41,150.575 14.408,140.038 24.947,140.038 24.947,140.538 14.908,140.538 14.91,150.575 				
					"/>
				<polygon fill="#a30000" points="16.624,148.861 16.124,148.861 16.124,141.752 23.232,141.752 23.232,142.252 16.624,142.252 
									"/>
				<polygon fill="#a30000" points="18.338,147.147 17.838,147.147 17.838,143.467 21.516,143.467 21.516,143.967 18.338,143.967 
									"/>
				<polygon fill="#a30000" points="11.48,137.11 0.944,137.108 0.944,136.608 10.98,136.61 10.981,126.572 11.481,126.572 				"/>
				<polygon fill="#a30000" points="9.766,135.396 2.658,135.396 2.658,134.896 9.266,134.896 9.266,128.286 9.766,128.286 				"/>
				<polygon fill="#a30000" points="8.05,133.681 4.373,133.68 4.373,133.18 7.55,133.181 7.55,130.001 8.05,130.001 				"/>
				<rect x="-14.487" y="152.039" fill="#a30000" width="27.432" height="0.5"/>
				<rect x="-1.021" y="138.574" fill="#a30000" width="0.5" height="27.43"/>
				<polygon fill="#a30000" points="-2.734,164.291 -2.735,154.254 -12.771,154.254 -12.771,153.754 -2.235,153.754 -2.234,164.291 
									"/>
				<polygon fill="#a30000" points="-3.95,162.576 -4.45,162.576 -4.45,155.967 -11.057,155.967 -11.057,155.467 -3.95,155.467 				
					"/>
				<polygon fill="#a30000" points="-5.664,160.861 -6.164,160.861 -6.164,157.682 -9.342,157.682 -9.342,157.182 -5.664,157.182 
									"/>
				<polygon fill="#a30000" points="11.23,150.826 0.694,150.825 0.693,140.288 1.193,140.288 1.194,150.325 11.23,150.326 				"/>
				<polygon fill="#a30000" points="9.516,149.111 2.408,149.111 2.408,142.004 2.908,142.004 2.908,148.611 9.516,148.611 				"/>
				<polygon fill="#a30000" points="7.8,147.397 4.123,147.397 4.123,143.717 4.623,143.717 4.623,146.897 7.8,146.897 				"/>
				<polygon fill="#a30000" points="0.695,164.291 0.694,153.754 11.23,153.754 11.23,154.254 1.194,154.254 1.195,164.291 				"/>
				<polygon fill="#a30000" points="2.908,162.576 2.408,162.576 2.408,155.467 9.516,155.47 9.516,155.97 2.908,155.967 				"/>
				<polygon fill="#a30000" points="4.624,160.861 4.124,160.861 4.125,157.183 7.802,157.183 7.802,157.683 4.625,157.683 				"/>
				<polygon fill="#a30000" points="-2.234,150.825 -12.771,150.825 -12.771,150.325 -2.734,150.325 -2.736,140.288 -2.236,140.288 
									"/>
				<polygon fill="#a30000" points="-3.95,149.11 -11.057,149.11 -11.057,148.61 -4.45,148.61 -4.45,142.002 -3.95,142.002 				"/>
				<polygon fill="#a30000" points="-5.663,147.396 -9.343,147.396 -9.343,146.896 -6.163,146.896 -6.165,143.717 -5.665,143.717 
									"/>
			</g>
		</g>
	</g>
</g>
<polygon fill="#cc0000" points="137.872,27.056 27.095,137.838 54.49,137.838 137.872,54.452 "/>
<polygon fill="#a30000" points="137.872,54.177 54.193,137.838 137.872,137.838 "/>
<g id="black_134_">
	<g>
		<path fill="#FFFFFF" d="M87.259,120.121h0.072l0.106,0.174h0.066l-0.114-0.179c0.058-0.005,0.104-0.037,0.104-0.107
			c0-0.079-0.049-0.117-0.143-0.117h-0.156v0.403h0.063L87.259,120.121L87.259,120.121z M87.259,120.072v-0.129h0.082
			c0.046,0,0.09,0.012,0.09,0.06c0,0.063-0.044,0.069-0.099,0.069H87.259z"/>
		<path fill="#FFFFFF" d="M87.729,120.094c0,0.218-0.177,0.396-0.396,0.396c-0.219,0-0.396-0.179-0.396-0.396
			c0-0.216,0.18-0.396,0.396-0.396C87.552,119.698,87.729,119.879,87.729,120.094z M87.333,119.768
			c-0.182,0-0.326,0.146-0.326,0.326c0,0.179,0.146,0.326,0.326,0.326c0.182,0,0.326-0.147,0.326-0.326
			C87.659,119.913,87.513,119.768,87.333,119.768z"/>
	</g>
	<g>
		<path d="M86.081,120.542c-0.301-0.07-0.623-0.112-0.947-0.112c-0.553,0-1.059,0.094-1.43,0.25
			c-0.045,0.021-0.071,0.063-0.071,0.11c0,0.019,0.005,0.037,0.015,0.052c0.041,0.13-0.031,0.269-0.393,0.348
			c-0.533,0.116-0.872,0.666-1.063,0.852c-0.228,0.213-0.867,0.348-0.771,0.218c0.074-0.099,0.359-0.412,0.538-0.753
			c0.159-0.302,0.296-0.386,0.487-0.676c0.058-0.084,0.274-0.381,0.34-0.616c0.072-0.229,0.049-0.518,0.074-0.634
			c0.039-0.173,0.201-0.542,0.211-0.755c0.01-0.116-0.494,0.171-0.73,0.171c-0.238,0-0.471-0.144-0.684-0.153
			c-0.264-0.011-0.432,0.202-0.668,0.165c-0.137-0.021-0.25-0.141-0.487-0.147c-0.338-0.012-0.753,0.186-1.531,0.164
			c-0.763-0.027-1.468-0.969-1.565-1.117c-0.11-0.176-0.248-0.176-0.399-0.037c-0.147,0.139-0.334,0.027-0.39-0.063
			c-0.099-0.174-0.366-0.688-0.781-0.795c-0.573-0.148-0.865,0.316-0.825,0.688c0.039,0.377,0.279,0.485,0.394,0.684
			c0.112,0.2,0.17,0.329,0.385,0.422c0.148,0.06,0.207,0.152,0.158,0.273c-0.039,0.109-0.193,0.134-0.297,0.139
			c-0.22,0.012-0.371-0.049-0.484-0.121c-0.129-0.081-0.235-0.194-0.346-0.391c-0.133-0.219-0.34-0.31-0.58-0.31
			c-0.114,0-0.224,0.028-0.319,0.079c-0.376,0.194-0.825,0.312-1.31,0.312h-0.547c-0.263-0.787-0.406-1.631-0.406-2.505
			c0-4.336,3.512-7.844,7.843-7.844s7.843,3.508,7.843,7.844C87.34,117.849,86.877,119.314,86.081,120.542z"/>
		<g id="logo_155_">
			<g id="white_154_">
				<path fill="#FFFFFF" d="M86.081,120.54c-0.301-0.068-0.623-0.11-0.947-0.11c-0.553,0-1.059,0.094-1.43,0.25
					c-0.045,0.02-0.071,0.063-0.071,0.11c0,0.019,0.005,0.037,0.015,0.053c0.041,0.124-0.031,0.265-0.393,0.347
					c-0.533,0.114-0.872,0.666-1.063,0.85c-0.228,0.215-0.867,0.35-0.771,0.218c0.074-0.097,0.359-0.41,0.538-0.751
					c0.159-0.302,0.296-0.386,0.487-0.676c0.058-0.084,0.274-0.381,0.34-0.616c0.072-0.229,0.049-0.518,0.074-0.634
					c0.039-0.173,0.201-0.542,0.211-0.755c0.01-0.116-0.494,0.171-0.73,0.171c-0.238,0-0.471-0.144-0.684-0.152
					c-0.264-0.012-0.432,0.201-0.668,0.164c-0.137-0.021-0.25-0.141-0.487-0.147c-0.338-0.015-0.753,0.186-1.531,0.164
					c-0.763-0.027-1.468-0.969-1.565-1.119c-0.11-0.174-0.248-0.174-0.399-0.035c-0.147,0.14-0.334,0.027-0.39-0.063
					c-0.099-0.174-0.366-0.688-0.781-0.795c-0.573-0.148-0.865,0.316-0.825,0.688c0.039,0.377,0.279,0.485,0.394,0.684
					c0.112,0.2,0.17,0.329,0.385,0.418c0.148,0.063,0.207,0.154,0.158,0.277c-0.039,0.109-0.193,0.134-0.297,0.139
					c-0.22,0.012-0.371-0.049-0.484-0.12c-0.129-0.082-0.235-0.195-0.346-0.392c-0.133-0.219-0.34-0.313-0.58-0.313
					c-0.114,0-0.224,0.031-0.319,0.082c-0.376,0.194-0.825,0.312-1.31,0.312h-0.547c1.047,3.104,3.982,5.336,7.437,5.336
					C82.256,124.12,84.682,122.696,86.081,120.54z"/>
			</g>
			<g id="black_135_">
				<g>
					<path fill="#FFFFFF" d="M87.259,120.121h0.072l0.106,0.174h0.066l-0.114-0.179c0.058-0.005,0.104-0.037,0.104-0.107
						c0-0.079-0.049-0.117-0.143-0.117h-0.156v0.403h0.063L87.259,120.121L87.259,120.121z M87.259,120.072v-0.129h0.082
						c0.046,0,0.09,0.012,0.09,0.06c0,0.063-0.044,0.069-0.099,0.069H87.259z"/>
					<path fill="#FFFFFF" d="M87.729,120.094c0,0.218-0.177,0.396-0.396,0.396c-0.219,0-0.396-0.179-0.396-0.396
						c0-0.216,0.18-0.396,0.396-0.396C87.552,119.698,87.729,119.879,87.729,120.094z M87.333,119.768
						c-0.182,0-0.326,0.146-0.326,0.326c0,0.179,0.146,0.326,0.326,0.326c0.182,0,0.326-0.147,0.326-0.326
						C87.659,119.913,87.513,119.768,87.333,119.768z"/>
				</g>
				<g>
					<path d="M86.081,120.542c-0.301-0.07-0.623-0.112-0.947-0.112c-0.553,0-1.059,0.094-1.43,0.25
						c-0.045,0.021-0.071,0.063-0.071,0.11c0,0.019,0.005,0.037,0.015,0.052c0.041,0.13-0.031,0.269-0.393,0.348
						c-0.533,0.116-0.872,0.666-1.063,0.852c-0.228,0.213-0.867,0.348-0.771,0.218c0.074-0.099,0.359-0.412,0.538-0.753
						c0.159-0.302,0.296-0.386,0.487-0.676c0.058-0.084,0.274-0.381,0.34-0.616c0.072-0.229,0.049-0.518,0.074-0.634
						c0.039-0.173,0.201-0.542,0.211-0.755c0.01-0.116-0.494,0.171-0.73,0.171c-0.238,0-0.471-0.144-0.684-0.153
						c-0.264-0.011-0.432,0.202-0.668,0.165c-0.137-0.021-0.25-0.141-0.487-0.147c-0.338-0.012-0.753,0.186-1.531,0.164
						c-0.763-0.027-1.468-0.969-1.565-1.117c-0.11-0.176-0.248-0.176-0.399-0.037c-0.147,0.139-0.334,0.027-0.39-0.063
						c-0.099-0.174-0.366-0.688-0.781-0.795c-0.573-0.148-0.865,0.316-0.825,0.688c0.039,0.377,0.279,0.485,0.394,0.684
						c0.112,0.2,0.17,0.329,0.385,0.422c0.148,0.06,0.207,0.152,0.158,0.273c-0.039,0.109-0.193,0.134-0.297,0.139
						c-0.22,0.012-0.371-0.049-0.484-0.121c-0.129-0.081-0.235-0.194-0.346-0.391c-0.133-0.219-0.34-0.31-0.58-0.31
						c-0.114,0-0.224,0.028-0.319,0.079c-0.376,0.194-0.825,0.312-1.31,0.312h-0.547c-0.263-0.787-0.406-1.631-0.406-2.505
						c0-4.336,3.512-7.844,7.843-7.844s7.843,3.508,7.843,7.844C87.34,117.849,86.877,119.314,86.081,120.542z"/>
				</g>
				<path fill="#FFFFFF" d="M91.34,116.771c0-0.718-0.018-1.248-0.047-1.727h1.178l0.053,1.021h0.037
					c0.264-0.758,0.891-1.143,1.473-1.143c0.133,0,0.209,0.003,0.315,0.029v1.277c-0.126-0.024-0.247-0.037-0.407-0.037
					c-0.647,0-1.099,0.411-1.224,1.027c-0.021,0.118-0.03,0.263-0.03,0.41v2.785h-1.361L91.34,116.771z"/>
				<path fill="#FFFFFF" d="M95.989,118.099c0.035,0.973,0.789,1.397,1.66,1.397c0.627,0,1.069-0.099,1.482-0.247l0.199,0.935
					c-0.461,0.194-1.096,0.341-1.877,0.341c-1.744,0-2.768-1.079-2.768-2.727c0-1.481,0.901-2.884,2.627-2.884
					c1.746,0,2.316,1.435,2.316,2.611c0,0.253-0.021,0.453-0.045,0.582L95.989,118.099z M98.352,117.15
					c0.008-0.498-0.21-1.311-1.119-1.311c-0.838,0-1.187,0.761-1.246,1.311H98.352z"/>
				<path fill="#FFFFFF" d="M104.129,118.089c0,0.142-0.012,0.274-0.043,0.396c-0.139,0.587-0.615,0.969-1.174,0.969
					c-0.855,0-1.346-0.724-1.346-1.709c0-1,0.487-1.768,1.36-1.768c0.611,0,1.052,0.429,1.168,0.951
					c0.024,0.11,0.033,0.247,0.033,0.355L104.129,118.089L104.129,118.089z M105.483,112.977l-1.354-0.384v3.029h-0.025
					c-0.238-0.396-0.77-0.698-1.504-0.698c-1.292,0-2.42,1.066-2.408,2.869c0,1.651,1.016,2.746,2.301,2.746
					c0.772,0,1.423-0.372,1.74-0.974h0.029l0.061,0.852h1.209c-0.024-0.362-0.047-0.958-0.047-1.505v-5.936H105.483z"/>
				<path fill="#FFFFFF" d="M109.08,114.917c-0.411,0-0.776,0.116-1.085,0.309c-0.318,0.188-0.581,0.478-0.736,0.776h-0.02v-2.519
					l-0.529-0.155v7.09h0.529v-3.287c0-0.221,0.018-0.368,0.072-0.529c0.23-0.668,0.859-1.218,1.62-1.218
					c1.101,0,1.482,0.881,1.482,1.852v3.184h0.532v-3.242C110.946,115.172,109.59,114.917,109.08,114.917z"/>
				<path fill="#FFFFFF" d="M115.718,119.144c0,0.421,0.019,0.86,0.078,1.273h-0.487l-0.08-0.77h-0.024
					c-0.261,0.416-0.858,0.894-1.714,0.894c-1.08,0-1.586-0.763-1.586-1.478c0-1.243,1.098-1.991,3.285-1.966v-0.146
					c0-0.532-0.105-1.594-1.377-1.584c-0.472,0-0.963,0.126-1.353,0.4l-0.168-0.387c0.491-0.334,1.09-0.466,1.577-0.466
					c1.55,0,1.849,1.164,1.849,2.127V119.144z M115.19,117.544c-1.176-0.033-2.721,0.145-2.721,1.435
					c0,0.774,0.514,1.121,1.072,1.121c0.895,0,1.406-0.555,1.592-1.076c0.037-0.117,0.057-0.233,0.057-0.324V117.544z"/>
				<path fill="#FFFFFF" d="M117.838,113.855v1.183h1.531v0.438h-1.531v3.493c0,0.684,0.213,1.11,0.791,1.11
					c0.277,0,0.473-0.037,0.611-0.084l0.063,0.413c-0.173,0.072-0.42,0.129-0.742,0.129c-0.395,0-0.719-0.126-0.929-0.381
					c-0.243-0.282-0.324-0.735-0.324-1.285v-3.396h-0.907v-0.438h0.907v-0.984L117.838,113.855z"/>
				<g>
					<path fill="#FFFFFF" d="M120.042,120.131h0.072l0.107,0.177h0.064l-0.112-0.179c0.06-0.008,0.104-0.036,0.104-0.11
						c0-0.079-0.051-0.114-0.145-0.114h-0.152v0.403h0.06L120.042,120.131L120.042,120.131z M120.042,120.082v-0.127h0.084
						c0.042,0,0.09,0.011,0.09,0.059c0,0.063-0.048,0.068-0.1,0.068H120.042z"/>
					<path fill="#FFFFFF" d="M120.509,120.104c0,0.22-0.176,0.396-0.396,0.396c-0.217,0-0.396-0.176-0.396-0.396
						c0-0.219,0.181-0.396,0.396-0.396C120.334,119.71,120.509,119.886,120.509,120.104z M120.116,119.777
						c-0.182,0-0.33,0.148-0.33,0.327c0,0.181,0.148,0.326,0.33,0.326c0.178,0,0.326-0.146,0.326-0.326
						C120.442,119.926,120.293,119.777,120.116,119.777z"/>
				</g>
				<path d="M81.224,119.821c0.039,0.04,0.111,0.171,0.023,0.34c-0.046,0.089-0.099,0.15-0.191,0.226
					c-0.108,0.087-0.321,0.19-0.622,0c-0.156-0.097-0.167-0.132-0.388-0.104c-0.151,0.021-0.218-0.136-0.162-0.27
					c0.056-0.133,0.286-0.238,0.576-0.069c0.131,0.074,0.331,0.237,0.508,0.094c0.074-0.06,0.119-0.097,0.22-0.216
					c0.004-0.002,0.012-0.007,0.02-0.007C81.208,119.814,81.22,119.816,81.224,119.821z"/>
			</g>
			<path id="red_154_" fill="#cc0000" d="M78.885,112.169c-0.902,0.067-0.999,0.164-1.169,0.346
				c-0.237,0.255-0.556-0.332-0.556-0.332c-0.188-0.037-0.418-0.346-0.295-0.629c0.121-0.282,0.347-0.198,0.418-0.109
				c0.084,0.104,0.27,0.28,0.509,0.272c0.235-0.006,0.511-0.056,0.894-0.056c0.389,0,0.648,0.146,0.662,0.269
				C79.362,112.038,79.317,112.137,78.885,112.169z M79.839,110.671h-0.005c-0.014,0-0.025-0.01-0.025-0.02
				c0-0.013,0.006-0.022,0.014-0.024c0.179-0.095,0.439-0.166,0.738-0.197c0.092-0.011,0.178-0.014,0.264-0.014
				c0.013,0,0.029,0,0.043,0c0.505,0.014,0.908,0.211,0.899,0.446c-0.005,0.234-0.415,0.416-0.917,0.403
				c-0.169-0.003-0.32-0.027-0.449-0.064c-0.018-0.005-0.025-0.015-0.025-0.035c0-0.015,0.009-0.028,0.025-0.031
				c0.313-0.071,0.524-0.19,0.508-0.303c-0.02-0.147-0.426-0.229-0.914-0.181C79.94,110.656,79.888,110.664,79.839,110.671z
				 M83.92,114.189c-0.075,0.263-0.186,0.594-0.676,0.847c-0.07,0.037-0.1-0.021-0.066-0.082c0.188-0.313,0.223-0.391,0.273-0.518
				c0.074-0.182,0.115-0.438-0.035-0.979c-0.295-1.063-0.912-2.482-1.357-2.94c-0.432-0.443-1.215-0.569-1.919-0.387
				c-0.261,0.064-0.772,0.329-1.716,0.116c-1.635-0.366-1.878,0.448-1.973,0.808c-0.094,0.358-0.318,1.372-0.318,1.372
				c-0.072,0.41-0.175,1.129,2.365,1.61c1.183,0.227,1.244,0.532,1.297,0.753c0.09,0.395,0.243,0.621,0.412,0.732
				c0.168,0.11,0,0.206-0.188,0.224c-0.505,0.052-2.367-0.479-3.467-1.106c-0.902-0.55-0.919-1.045-0.71-1.467
				c-1.36-0.147-2.383,0.128-2.567,0.771c-0.319,1.105,2.433,2.996,5.562,3.943c3.287,0.992,6.662,0.298,7.039-1.766
				C86.043,115.185,85.257,114.491,83.92,114.189z"/>
		</g>
	</g>
	<g>
		<path fill="#FFFFFF" d="M120.042,120.131h0.072l0.107,0.177h0.064l-0.112-0.179c0.06-0.008,0.104-0.036,0.104-0.11
			c0-0.079-0.051-0.114-0.145-0.114h-0.152v0.403h0.06L120.042,120.131L120.042,120.131z M120.042,120.082v-0.127h0.084
			c0.042,0,0.09,0.011,0.09,0.059c0,0.063-0.048,0.068-0.1,0.068H120.042z"/>
		<path fill="#FFFFFF" d="M120.509,120.104c0,0.22-0.176,0.396-0.396,0.396c-0.217,0-0.396-0.176-0.396-0.396
			c0-0.219,0.181-0.396,0.396-0.396C120.334,119.71,120.509,119.886,120.509,120.104z M120.116,119.777
			c-0.182,0-0.33,0.148-0.33,0.327c0,0.181,0.148,0.326,0.33,0.326c0.178,0,0.326-0.146,0.326-0.326
			C120.442,119.926,120.293,119.777,120.116,119.777z"/>
	</g>
	<path d="M81.224,119.821c0.039,0.04,0.111,0.171,0.023,0.34c-0.046,0.089-0.099,0.15-0.191,0.226c-0.108,0.087-0.321,0.19-0.622,0
		c-0.156-0.097-0.167-0.132-0.388-0.104c-0.151,0.021-0.218-0.136-0.162-0.27c0.056-0.133,0.286-0.238,0.576-0.069
		c0.131,0.074,0.331,0.237,0.508,0.094c0.074-0.06,0.119-0.097,0.22-0.216c0.004-0.002,0.012-0.007,0.02-0.007
		C81.208,119.814,81.22,119.816,81.224,119.821z"/>
</g>
</svg>
