<?xml version="1.0" encoding="UTF-8" standalone="no"?>
<svg
   xmlns:dc="http://purl.org/dc/elements/1.1/"
   xmlns:cc="http://creativecommons.org/ns#"
   xmlns:rdf="http://www.w3.org/1999/02/22-rdf-syntax-ns#"
   xmlns:svg="http://www.w3.org/2000/svg"
   xmlns="http://www.w3.org/2000/svg"
   xmlns:sodipodi="http://sodipodi.sourceforge.net/DTD/sodipodi-0.dtd"
   xmlns:inkscape="http://www.inkscape.org/namespaces/inkscape"
   class="logo"
   height="170"
   width="390.77106"
   viewBox="0 522 390.77106 170"
   preserveAspectRatio="xMaxYMax meet"
   id="svg4320"
   version="1.1"
   inkscape:version="0.48+devel+osxmenu r12780"
   sodipodi:docname="rh-forum-beijing-logo.svg">
  <sodipodi:namedview
     pagecolor="#ffffff"
     bordercolor="#666666"
     borderopacity="1"
     objecttolerance="10"
     gridtolerance="10"
     guidetolerance="10"
     inkscape:pageopacity="0"
     inkscape:pageshadow="2"
     inkscape:window-width="1440"
     inkscape:window-height="851"
     id="namedview4329"
     showgrid="false"
     inkscape:zoom="0.85472041"
     inkscape:cx="195.38553"
     inkscape:cy="85"
     inkscape:window-x="0"
     inkscape:window-y="23"
     inkscape:window-maximized="0"
     inkscape:current-layer="svg4320" />
  <metadata
     id="metadata4329">
    <rdf:RDF>
      <cc:Work
         rdf:about="">
        <dc:format>image/svg+xml</dc:format>
        <dc:type
           rdf:resource="http://purl.org/dc/dcmitype/StillImage" />
        <dc:title />
      </cc:Work>
    </rdf:RDF>
  </metadata>
  <defs
     id="defs5146" />
  <path
     style="fill:#cc0000"
     d="M 136.62423,588.9945 C 136.62423,551.99694 106.0339,522 68.30544,522 30.576985,522 0,551.99627 0,588.9945 c 0,46.35441 67.68535,103.00483 67.68535,103.00483 0,0 68.93888,-58.5501 68.93888,-103.00483"
     id="path5810" />
  <path
     style="fill:#aa0000"
     d="m 136.62423,588.9945 c 0,-19.16093 -8.20544,-36.43955 -21.34694,-48.64791 L 67.68735,692 c -0.002,-6.7e-4 68.93688,-58.55077 68.93688,-103.0055"
     id="path5812" />
  <path
     style="fill:#ffffff"
     class="logotype logotext"
     id="path5834"
     d="m 382.26272,620.00092 0,-15.71619 c 0,-0.57229 0.0166,-1.30489 0.0396,-2.20803 0.0127,-0.89357 0.0249,-1.80949 0.0249,-2.75031 0,-0.93636 0.0134,-1.81331 0.0344,-2.62704 0.0165,-0.81818 0.0293,-1.43262 0.0293,-1.83885 -0.33085,0.81756 -0.76646,1.89827 -1.31766,3.24147 -0.55505,1.34642 -1.12031,2.63151 -1.69068,3.85592 l -8.7075,19.02091 -8.66543,-19.02091 c -0.5723,-1.22441 -1.12734,-2.5095 -1.67791,-3.85592 -0.54546,-1.34385 -0.9785,-2.42391 -1.30937,-3.24147 0,0.40685 0.009,1.0213 0.0301,1.83885 0.0211,0.81309 0.0339,1.69068 0.0339,2.62704 0,0.94082 0.0102,1.8561 0.0306,2.75031 0.0159,0.90249 0.0301,1.63637 0.0301,2.20803 l 0,15.71619 -8.38058,0 0,-42.81938 8.2541,0 8.90687,19.38944 c 0.28678,0.61444 0.57229,1.25444 0.85587,1.92892 0.28231,0.67384 0.55952,1.33874 0.82203,1.9915 0.26251,0.65213 0.50842,1.26274 0.7358,1.82992 0.22163,0.57228 0.39408,1.03791 0.51864,1.41092 0.27528,-0.81756 0.69045,-1.90656 1.22888,-3.27533 0.5295,-1.36876 1.08006,-2.66152 1.65235,-3.88529 l 8.64883,-19.38944 8.3812,0 0,42.81874 -8.5083,0 0,0 z m -48.67894,-4.43204 c -3.05496,3.41073 -7.31327,5.11418 -12.76086,5.11418 -2.56827,0 -4.91555,-0.4324 -7.05651,-1.29084 -2.13587,-0.85204 -3.96068,-2.11158 -5.46675,-3.76329 -1.50355,-1.65299 -2.67367,-3.679 -3.50847,-6.09014 -0.8348,-2.40221 -1.24996,-5.17613 -1.24996,-8.3167 l 0,-24.03864 8.50192,0 0,23.91921 c 0,3.46693 0.77541,6.19934 2.33323,8.19533 1.55654,2.00046 3.7039,2.99493 6.44654,2.99493 2.7356,0 4.89255,-0.97149 6.47017,-2.9317 1.57634,-1.95764 2.36899,-4.6741 2.36899,-8.13592 l 0,-24.03866 8.5,0 0,23.91984 c -0.002,6.23322 -1.53163,11.05933 -4.5783,14.4624 m -50.39005,-28.75872 c -1.08902,-0.83034 -2.58489,-1.24997 -4.51252,-1.24997 l -11.22923,0 0,10.9533 11.22923,0 c 4.09287,0 6.13932,-1.8478 6.13932,-5.53828 0,-1.94489 -0.54674,-3.33473 -1.6268,-4.16505 m 0.55887,33.19076 -7.66074,-15.41153 -8.64372,0 0,15.41153 -8.50957,0 0,-42.81938 19.94638,0 c 1.99535,0 3.89425,0.27528 5.6852,0.82585 1.7967,0.55058 3.36794,1.39752 4.71179,2.53826 1.34386,1.1401 2.40412,2.55932 3.18207,4.25446 0.77988,1.69005 1.15736,3.67772 1.15736,5.96176 0,3.22041 -0.67896,5.86467 -2.04133,7.91942 -1.37004,2.06304 -3.41967,3.61831 -6.14826,4.67731 l 8.1947,16.6404 -9.87388,0 0,0.002 z m -46.90332,-31.44133 c -1.87335,-2.36452 -4.32473,-3.54678 -7.33372,-3.54678 -3.01856,0 -5.42778,1.16118 -7.25131,3.48355 -1.81395,2.32619 -2.72475,5.6737 -2.72475,10.03802 0,4.35987 0.94082,7.72397 2.81735,10.09743 1.86889,2.36453 4.32282,3.54295 7.33372,3.54295 3.02495,0 5.43227,-1.15991 7.25132,-3.48227 1.81778,-2.32811 2.72475,-5.66603 2.72475,-10.03355 0.002,-4.37008 -0.9306,-7.73036 -2.81736,-10.09935 m 10.24944,19.27256 c -0.91591,2.72794 -2.20803,5.04327 -3.88593,6.94409 -1.6728,1.89442 -3.66367,3.35197 -5.99179,4.36944 -2.32618,1.01364 -4.87274,1.53292 -7.64412,1.53292 -2.81737,0 -5.38117,-0.50395 -7.68181,-1.50354 -2.30831,-0.9932 -4.28385,-2.44499 -5.93237,-4.34453 -1.65683,-1.88996 -2.93681,-4.19444 -3.85465,-6.91024 -0.91208,-2.7075 -1.37706,-5.80144 -1.37706,-9.26711 0,-3.46183 0.46562,-6.56278 1.37706,-9.30094 0.91847,-2.72859 2.21187,-5.04265 3.88978,-6.94091 1.66832,-1.89378 3.67004,-3.35197 5.99177,-4.37264 2.32683,-1.02194 4.89,-1.52588 7.70417,-1.52588 2.77648,0 5.31729,0.495 7.62432,1.49587 2.30129,0.99958 4.28386,2.445 5.92791,4.34324 1.65683,1.8938 2.93681,4.19891 3.85017,6.91089 0.91911,2.71582 1.38154,5.80081 1.38154,9.27157 0.007,3.46631 -0.45796,6.56342 -1.37899,9.29777 m -63.46069,-14.25099 12.90649,0 0,8.3812 -12.90649,0 0,18.03856 -8.50065,0 0,-42.8181 30.58545,0 0,8.38121 -22.0848,0 z m 116.564,-44.32228 -6.15272,0 0,-4.1906 16.54971,0 0,4.1906 -6.14825,0 0,17.22037 -4.24874,0 z m -15.99595,4.49144 c -0.22865,-0.62594 -0.44007,-1.24038 -0.63104,-1.83503 -0.19099,-0.59336 -0.33851,-1.089 -0.44008,-1.49587 -0.0964,0.40687 -0.25037,0.90251 -0.43943,1.49587 -0.19481,0.59401 -0.40239,1.20845 -0.62659,1.83503 l -1.37132,3.88977 4.88873,0 -1.38027,-3.88977 z m 4.52594,12.72445 -1.67856,-4.77118 -7.83828,0 -1.67854,4.77118 -4.58917,0 8.19535,-21.40713 4.16121,0 8.1353,21.40713 -4.70731,0 z m -20.7084,0 -4.24935,0 0,-8.98734 -8.80978,0 0,8.98734 -4.25384,0 0,-21.40649 4.25384,0 0,8.22471 8.80978,0 0,-8.22471 4.24935,0 z m -38.20339,-15.58908 c -1.00789,-1.08901 -2.64427,-1.63192 -4.9149,-1.63192 l -2.27127,0 0,13.03424 2.11607,0 c 1.12732,0 2.10136,-0.16096 2.93679,-0.47457 0.82203,-0.31361 1.49971,-0.75879 2.03367,-1.32149 0.53397,-0.5723 0.92805,-1.25891 1.1995,-2.05986 0.26252,-0.80095 0.39856,-1.68685 0.39856,-2.66152 0,-2.16843 -0.4982,-3.79459 -1.49842,-4.88488 m 4.97047,9.73336 c -0.62466,1.35215 -1.45052,2.46606 -2.47885,3.33089 -1.02961,0.86865 -2.20357,1.50864 -3.51739,1.9155 -1.31768,0.40303 -2.65642,0.60997 -4.02645,0.60997 l -6.38587,0 0,-21.40713 6.695,0 c 1.52526,0 2.94064,0.18651 4.23723,0.5595 1.29211,0.38133 2.41051,0.99577 3.36603,1.85612 0.94784,0.85588 1.69323,1.95702 2.23294,3.31684 0.5429,1.35151 0.80541,3.01345 0.80541,4.97046 0.005,1.87719 -0.30914,3.49186 -0.92805,4.84785 m -21.90724,5.85572 -15.29656,0 0,-21.40649 14.83348,0 0,4.18613 -10.58348,0 0,3.66941 6.1425,0 0,4.1906 -6.1425,0 0,5.17423 11.04656,0 z M 186.95104,549.8861 c -0.54355,-0.41964 -1.2966,-0.62722 -2.24956,-0.62722 l -5.61876,0 0,5.47441 5.61876,0 c 2.03814,0 3.06392,-0.91847 3.06392,-2.7669 -0.005,-0.97468 -0.27145,-1.67343 -0.81436,-2.08029 m 0.28039,16.58867 -3.82655,-7.70671 -4.32472,0 0,7.70671 -4.24553,0 0,-21.40713 9.97032,0 c 0.99575,0 1.94488,0.1354 2.84292,0.41133 0.89291,0.27593 1.68236,0.70003 2.35557,1.27104 0.67001,0.56782 1.19951,1.27935 1.59359,2.12757 0.38578,0.84309 0.57996,1.83501 0.57996,2.97895 0,1.6102 -0.33852,2.92787 -1.02514,3.95748 -0.68023,1.02896 -1.71175,1.8133 -3.07221,2.33896 l 4.09735,8.32116 -4.94556,0 z" />
  <path
     id="path7091"
     d="m 54.74152,544.33217 -31.411118,31.15547 c -0.757882,0.5411 -1.046499,1.53091 -0.698234,2.39456 l 12.806656,47.84714 c 0.22128,0.77399 0.865221,1.35326 1.659715,1.4739 l 41.645121,6.00028 c 0.55757,0.0771 1.08751,-0.0878 1.53446,-0.41169 l 33.06889,-26.04163 c 0.6317,-0.50248 0.89966,-1.34304 0.69997,-2.10477 l -12.8082,-47.85284 c -0.13209,-0.92249 -0.87927,-1.63419 -1.80708,-1.72132 L 56.67415,543.814 c -0.70216,-0.12561 -1.50205,0.12889 -1.93263,0.51817 z m 2.31713,4.78213 31.48905,25.94083 -45.803243,12.28622 z m 7.48023,0.93916 32.09557,8.45005 -4.75775,14.07089 z m -13.49306,3.62248 -12.425661,33.18395 -11.146943,-9.80313 z m 47.96509,10.38516 7.92911,29.62389 -11.86471,-17.98469 z m -8.94797,14.76151 -12.10596,48.37497 -34.645395,-35.83445 z m 3.62957,2.10261 15.70418,23.80459 -26.97812,21.2453 z m -65.502244,2.13079 9.221612,8.10999 -1.292506,21.51411 z m 13.029913,11.9439 32.265751,33.37305 -33.976675,-4.89544 z"
     style="fill:#ffffff" />
  <g
     style="font-style:normal;font-variant:normal;font-weight:normal;font-stretch:normal;font-size:23.41070557px;line-height:125%;font-family:Interstate-Regular;-inkscape-font-specification:Interstate-Regular;letter-spacing:0px;word-spacing:0px;fill:#000000;fill-opacity:1;stroke:none;stroke-width:1px;stroke-linecap:butt;stroke-linejoin:miter;stroke-opacity:1"
     id="text4379">
    <path
       d="m 187.63966,645.49361 q 0,-0.84278 -0.25752,-1.49828 -0.23411,-0.6555 -0.63209,-1.12371 -0.39798,-0.46822 -0.88961,-0.74915 -0.49162,-0.30434 -0.98325,-0.4448 0.88961,-0.4448 1.47488,-1.21736 0.60868,-0.79596 0.60868,-2.06014 0,-2.08355 -1.28759,-3.16044 -1.26418,-1.10031 -3.41796,-1.10031 l -6.74229,0 0,16.3875 6.50818,0 q 2.69223,0 4.14369,-1.26418 1.47488,-1.26418 1.47488,-3.76913 z m -3.13704,-6.95297 q 0,0.39798 -0.14046,0.77255 -0.11705,0.37457 -0.39798,0.67891 -0.25752,0.28093 -0.70232,0.46821 -0.4214,0.16388 -1.03008,0.16388 l -4.40121,0 0,-4.23734 4.40121,0 q 1.24077,0 1.75581,0.63209 0.51503,0.60868 0.51503,1.5217 z m 0.67891,7.02321 q 0,1.21735 -0.67891,1.9665 -0.6555,0.74914 -2.29425,0.74914 l -4.3778,0 0,-5.43128 4.44804,0 q 1.40464,0 2.15378,0.72573 0.74914,0.72573 0.74914,1.98991 z"
       style="font-size:23.41070557px;fill:#ffffff"
       id="path4332" />
    <path
       d="m 200.74947,644.13579 q 0,-1.24076 -0.32775,-2.36448 -0.30434,-1.12371 -0.95984,-1.9665 -0.63209,-0.84278 -1.61534,-1.33441 -0.95984,-0.49162 -2.27084,-0.49162 -1.19394,0 -2.2006,0.42139 -0.98325,0.42139 -1.68557,1.24077 -0.70232,0.79596 -1.10031,1.98991 -0.39798,1.19394 -0.39798,2.76246 0,1.5217 0.42139,2.71564 0.4214,1.19395 1.14713,2.01332 0.72573,0.81938 1.68557,1.24077 0.98325,0.42139 2.06014,0.42139 1.40464,0 2.4113,-0.42139 1.00666,-0.42139 1.82604,-1.19394 l -1.42805,-1.54511 q -0.60868,0.46821 -1.26418,0.72573 -0.63209,0.25752 -1.40464,0.25752 -0.56186,0 -1.0769,-0.18729 -0.51503,-0.21069 -0.93642,-0.60868 -0.4214,-0.42139 -0.70233,-1.05348 -0.28092,-0.63209 -0.37457,-1.52169 l 8.12352,0 q 0.0234,-0.18729 0.0468,-0.46822 0.0234,-0.30434 0.0234,-0.63209 z m -2.43471,-0.8896 -5.71222,0 q 0.16388,-1.47488 0.8662,-2.27084 0.72573,-0.81938 1.94309,-0.81938 0.74914,0 1.26418,0.25752 0.53844,0.23411 0.8896,0.6555 0.35116,0.42139 0.51504,0.98325 0.18728,0.56186 0.23411,1.19395 z"
       style="font-size:23.41070557px;fill:#ffffff"
       id="path4334" />
    <path
       d="m 206.66451,635.09926 q 0,-0.6555 -0.46821,-1.1003 -0.4448,-0.46822 -1.07689,-0.46822 -0.6555,0 -1.12372,0.46822 -0.4448,0.4448 -0.4448,1.1003 0,0.63209 0.4448,1.1003 0.46822,0.44481 1.12372,0.44481 0.63209,0 1.07689,-0.44481 0.46821,-0.46821 0.46821,-1.1003 z m -0.35116,15.42766 0,-12.29062 -2.4113,0 0,12.29062 2.4113,0 z"
       style="font-size:23.41070557px;fill:#ffffff"
       id="path4336" />
    <path
       d="m 212.88298,635.09926 q 0,-0.6555 -0.46821,-1.1003 -0.44481,-0.46822 -1.0769,-0.46822 -0.6555,0 -1.12371,0.46822 -0.4448,0.4448 -0.4448,1.1003 0,0.63209 0.4448,1.1003 0.46821,0.44481 1.12371,0.44481 0.63209,0 1.0769,-0.44481 0.46821,-0.46821 0.46821,-1.1003 z m -0.35116,14.8658 0,-11.72876 -2.4113,0 0,11.77558 q 0,0.79596 -0.0936,1.28759 -0.0702,0.51504 -0.35117,0.8662 -0.28092,0.35116 -0.79596,0.58526 -0.49162,0.23411 -1.33441,0.46822 l 0.81938,1.82603 q 1.26417,-0.25752 2.08355,-0.6555 0.81937,-0.39798 1.26418,-1.00666 0.46821,-0.58527 0.63208,-1.42805 0.18729,-0.81938 0.18729,-1.98991 z"
       style="font-size:23.41070557px;fill:#ffffff"
       id="path4338" />
    <path
       d="m 219.10145,635.09926 q 0,-0.6555 -0.46822,-1.1003 -0.4448,-0.46822 -1.07689,-0.46822 -0.6555,0 -1.12371,0.46822 -0.4448,0.4448 -0.4448,1.1003 0,0.63209 0.4448,1.1003 0.46821,0.44481 1.12371,0.44481 0.63209,0 1.07689,-0.44481 0.46822,-0.46821 0.46822,-1.1003 z m -0.35116,15.42766 0,-12.29062 -2.4113,0 0,12.29062 2.4113,0 z"
       style="font-size:23.41070557px;fill:#ffffff"
       id="path4340" />
    <path
       d="m 232.31972,650.52692 0,-7.04663 q 0,-2.73905 -1.12371,-4.12028 -1.10031,-1.38123 -3.25409,-1.38123 -0.95984,0 -1.80262,0.37457 -0.81938,0.37457 -1.28759,1.05348 l 0,-1.17053 -2.41131,0 0,12.29062 2.41131,0 0,-7.18709 q 0,-1.49829 0.6555,-2.31766 0.6555,-0.81937 1.87285,-0.81937 1.19395,0 1.84945,0.74914 0.67891,0.74914 0.67891,2.622 l 0,6.95298 2.4113,0 z"
       style="font-size:23.41070557px;fill:#ffffff"
       id="path4342" />
    <path
       d="m 245.5775,649.35638 0,-11.12008 -2.41131,0 0,1.14712 q -0.49162,-0.56186 -1.311,-0.98325 -0.81937,-0.42139 -1.7558,-0.42139 -0.95984,0 -1.82603,0.37457 -0.8662,0.37457 -1.54511,1.14712 -0.67891,0.77256 -1.07689,1.94309 -0.39799,1.17054 -0.39799,2.73906 0,1.7558 0.37458,3.01998 0.37457,1.24076 1.00666,2.03673 0.63209,0.79596 1.49828,1.17053 0.8662,0.37457 1.84945,0.37457 0.98325,0 1.73239,-0.39798 0.77255,-0.42139 1.45146,-1.03007 l 0,0.2107 q 0,0.95984 -0.18728,1.61534 -0.16388,0.67891 -0.63209,1.1003 -0.4448,0.4448 -1.28759,0.6555 -0.81937,0.2107 -2.10696,0.28093 l 0.81937,1.82603 q 1.66216,-0.0468 2.78588,-0.42139 1.12371,-0.37457 1.77921,-1.07689 0.67891,-0.70232 0.95984,-1.75581 0.28093,-1.03007 0.28093,-2.43471 z m -2.36449,-2.36448 q -0.46821,0.60868 -1.19394,1.1003 -0.72573,0.46822 -1.59193,0.46822 -1.33441,0 -2.06014,-1.05348 -0.70232,-1.05349 -0.70232,-3.39456 0,-1.9665 0.67891,-2.92634 0.67891,-0.98324 1.98991,-0.98324 0.4448,0 0.86619,0.16387 0.44481,0.14046 0.81938,0.37457 0.37457,0.23411 0.67891,0.51504 0.30434,0.28093 0.51503,0.56185 l 0,5.17377 z"
       style="font-size:23.41070557px;fill:#ffffff"
       id="path4344" />
  </g>
</svg>
