<?xml version="1.0" encoding="UTF-8" standalone="no"?>
<svg
   xmlns:dc="http://purl.org/dc/elements/1.1/"
   xmlns:cc="http://creativecommons.org/ns#"
   xmlns:rdf="http://www.w3.org/1999/02/22-rdf-syntax-ns#"
   xmlns:svg="http://www.w3.org/2000/svg"
   xmlns="http://www.w3.org/2000/svg"
   xmlns:xlink="http://www.w3.org/1999/xlink"
   height="170"
   width="529.52551"
   version="1.1"
   viewBox="0 0 529.52551 170"
   preserveAspectRatio="xMidYMid meet"
   id="svg3466">
  <metadata
     id="metadata4416">
    <rdf:RDF>
      <cc:Work
         rdf:about="">
        <dc:format>image/svg+xml</dc:format>
        <dc:type
           rdf:resource="http://purl.org/dc/dcmitype/StillImage" />
        <dc:title></dc:title>
      </cc:Work>
    </rdf:RDF>
  </metadata>
  <defs
     id="defs4414" />
  <path
     style="fill:#ffffff"
     id="shadowman-face"
     d="m 156.37196,131.20617 c -3.27754,-0.75157 -6.75237,-1.226 -10.26713,-1.226 -6.01254,0 -11.48372,1.04046 -15.5187,2.72209 -0.4439,0.2196 -0.76097,0.68581 -0.76097,1.21308 0,0.19494 0.047,0.3887 0.12213,0.55545 0.47678,1.37984 -0.3065,2.87827 -4.2123,3.73788 -5.7906,1.27179 -9.4451,7.24794 -11.5354,9.23137 -2.45668,2.33338 -9.3946,3.76371 -8.35062,2.37331 0.81733,-1.0839 3.93751,-4.47535 5.83757,-8.13925 1.69925,-3.27636 3.2106,-4.2076 5.29503,-7.33366 0.60947,-0.9148 2.97926,-4.13362 3.66977,-6.68308 0.7727,-2.4837 0.512,-5.6074 0.80911,-6.88977 0.42628,-1.85543 2.17485,-5.87397 2.30637,-8.14394 0.0705,-1.28471 -5.36079,1.83195 -7.94079,1.83195 -2.57999,0 -5.0907,-1.54659 -7.3959,-1.65698 -2.85243,-0.1327 -4.68555,2.20304 -7.26672,1.7932 -1.4726,-0.23604 -2.71504,-1.53602 -5.28916,-1.62997 -3.66742,-0.13504 -8.146293,2.03981 -16.562681,1.76736 -8.277818,-0.27009 -15.923848,-10.46323 -16.966649,-12.0838 -1.223647,-1.90006 -2.717388,-1.90006 -4.343829,-0.40514 -1.629963,1.49139 -3.636884,0.31824 -4.209955,-0.68346 -1.086251,-1.89771 -3.988008,-7.448744 -8.484499,-8.616024 -6.218051,-1.611174 -9.366417,3.441947 -8.956578,7.464014 0.414537,4.08195 3.053246,5.22692 4.275718,7.3959 1.221298,2.17132 1.846039,3.56877 4.145368,4.52937 1.628789,0.68345 2.235915,1.68515 1.750918,3.02389 -0.42628,1.16493 -2.122005,1.4315 -3.235265,1.48669 -2.368614,0.11743 -4.02911,-0.53079 -5.241013,-1.30233 -1.406842,-0.90188 -2.554157,-2.14784 -3.782501,-4.2628 -1.422108,-2.3369 -3.66272,-3.35504 -6.273245,-3.35504 -1.242436,0 -2.407367,0.32763 -3.441947,0.86078 -4.090174,2.1314 -8.957752,3.39027 -14.198765,3.39027 l -5.911552,0 C 15.772361,145.79129 47.561341,170 85.007046,170 c 29.911234,0 56.214944,-15.44355 71.364914,-38.7997 z" />
  <path
     style="fill:#ffffff"
     id="registered"
     d="m 174.23696,126.38204 c 0,2.36627 -1.92471,4.29334 -4.29568,4.29334 -2.37096,0 -4.29803,-1.92707 -4.29803,-4.29334 0,-2.37331 1.92707,-4.29803 4.29803,-4.29803 2.37097,0 4.29568,1.92472 4.29568,4.29803 z m -4.29685,-3.53824 c -1.95408,0 -3.53824,1.58417 -3.53824,3.54059 0,1.94821 1.58416,3.52415 3.53824,3.52415 1.94938,0 3.53237,-1.57594 3.53237,-3.52415 0,-1.9576 -1.58182,-3.54059 -3.53237,-3.54059 z m -0.7868,3.82478 0.76566,0 1.15789,1.89888 0.74452,0 -1.25301,-1.93529 c 0.64941,-0.0822 1.14145,-0.41923 1.14145,-1.20016 0,-0.87135 -0.51318,-1.24948 -1.54776,-1.24948 l -1.67107,0 0,4.38376 0.66232,0 0,-1.89771 z m 0,-0.56368 0,-1.36104 0.90541,0 c 0.46033,0 0.9559,0.10569 0.9559,0.6447 0,0.67172 -0.49792,0.71634 -1.06512,0.71634 l -0.79619,0 z"
     class="logotypeReverse" />
  <use
     width="100%"
     y="0"
     xlink:href="#registered"
     x="0"
     transform="translate(355.28854,0.11317)"
     style="fill:#000000"
     id="use23721"
     height="1052.36" />
  <path
     style="fill:#ffffff"
     id="path8455"
     d="m 500.54903,58.756182 0,12.844769 16.612,0 0,4.676162 -16.612,0 0,37.882557 c 0,7.41116 2.29933,12.05444 8.56083,12.05444 3.00275,0 5.12828,-0.39457 6.62202,-0.91245 l 0.69755,4.46244 c -1.88009,0.79032 -4.52467,1.40097 -8.04413,1.40097 -4.2534,0 -7.7799,-1.33873 -10.05692,-4.13245 -2.63871,-3.06147 -3.54294,-7.95253 -3.54294,-13.89931 l 0,-36.857371 -9.83497,0 0,-4.676163 9.83497,0 0,-10.716891 5.76359,-2.126703 z m -22.95571,57.288278 c 0,4.60922 0.18672,9.38051 0.84904,13.84412 l -5.30795,0 -0.84786,-8.3518 -0.27362,0 c -2.82308,4.49179 -9.31827,9.67878 -18.58252,9.67878 -11.72798,0 -17.18507,-8.24845 -17.18507,-16.02014 0,-13.45307 11.87477,-21.558259 35.5844,-21.306953 l 0,-1.55833 c 0,-5.765936 -1.12031,-17.264927 -14.90571,-17.175679 -5.1001,0 -10.41509,1.36574 -14.63092,4.343829 l -1.83547,-4.192341 c 5.32557,-3.608701 11.8278,-5.035506 17.09935,-5.035506 16.81751,0 20.03633,12.625169 20.03633,23.041433 l 0,22.732587 z m -5.76358,-17.307205 c -12.69211,-0.365215 -29.44855,1.557155 -29.44855,15.550415 0,8.37528 5.52754,12.14135 11.59998,12.14135 9.71167,0 15.23452,-6.01372 17.24614,-11.68806 0.41923,-1.24244 0.60243,-2.49309 0.60243,-3.49127 l 0,-12.512435 z m -66.2155,-28.470338 c -4.43425,0 -8.40699,1.27884 -11.7456,3.339781 -3.46543,2.030408 -6.28499,5.162333 -7.96075,8.406993 l -0.23486,0 0,-27.256086 -5.76477,-1.702771 0,76.833746 5.76477,0 0,-35.643118 c 0,-2.368614 0.18789,-4.011495 0.78445,-5.74245 2.49074,-7.250283 9.32179,-13.199414 17.57964,-13.199414 11.93115,0 16.0636,9.568401 16.0636,20.063344 l 0,34.521638 5.76006,0 0,-35.156948 c 0,-21.707399 -14.72251,-24.464715 -20.24654,-24.464715 z M 351.9605,104.63589 c 0,1.54424 -0.11743,2.98161 -0.44742,4.29568 -1.48199,6.37189 -6.69365,10.47968 -12.71676,10.47968 -9.2713,0 -14.57573,-7.81631 -14.57573,-18.51676 0,-10.806139 5.25746,-19.167334 14.74483,-19.167334 6.61967,0 11.3616,4.667942 12.66157,10.339933 0.25248,1.193114 0.33351,2.664543 0.33351,3.841217 l 0,8.727584 z m 14.71664,-55.411704 -14.71899,-4.152414 0,32.848222 -0.24308,0 c -2.60466,-4.302727 -8.34711,-7.58614 -16.31842,-7.58614 -14.00618,0 -26.19802,11.58824 -26.10995,31.099656 0,17.90023 11.01517,29.76209 24.92153,29.76209 8.40347,0 15.42946,-4.00562 18.91016,-10.529 l 0.2607,0 0.65997,9.22198 13.12073,0 c -0.27127,-3.95865 -0.485,-10.37282 -0.485,-16.33369 l 0,-64.330704 z M 263.75459,104.73218 c 0.38988,10.55249 8.55731,15.16876 17.98832,15.16876 6.77115,0 11.61759,-1.06041 16.07063,-2.69507 l 2.17838,10.1309 c -4.98149,2.11496 -11.89826,3.69208 -20.34871,3.69208 -18.9125,0 -29.98991,-11.67749 -29.98991,-29.52136 0,-16.07299 9.74924,-31.282849 28.48325,-31.282849 18.936,0 25.10003,15.575074 25.10003,28.322373 0,2.736176 -0.24544,4.933336 -0.52375,6.290856 l -38.95824,-0.10569 z m 25.61086,-10.257725 c 0.0705,-5.397198 -2.28054,-14.190545 -12.1437,-14.190545 -9.06813,0 -12.8342,8.223799 -13.49651,14.190545 l 25.64021,0 z m -76.01994,-4.107789 c 0,-7.796345 -0.1691,-13.530574 -0.47795,-18.717568 l 12.75083,0 0.54606,11.062142 0.41688,0 c 2.8677,-8.199138 9.65765,-12.377386 15.94264,-12.377386 1.43972,0 2.27584,0.05872 3.45486,0.317067 l 0,13.871129 c -1.37748,-0.271269 -2.66689,-0.419234 -4.4366,-0.419234 -7.01776,0 -11.88651,4.463609 -13.20176,11.139648 -0.24896,1.298803 -0.37931,2.855958 -0.37931,4.442471 l 0,30.202465 -14.73543,0 0.11744,-39.520734 z"
     class="logotypeReverse" />
  <path
     style="fill:#000000"
     id="path23724"
     d="m 103.73049,123.41335 c 0.43684,0.4251 1.18959,1.86365 0.26892,3.68151 -0.51671,0.96529 -1.07334,1.64288 -2.06682,2.43672 -1.19546,0.9606 -3.53471,2.06447 -6.73945,0.0352 -1.72156,-1.09329 -1.82607,-1.46086 -4.2076,-1.15319 -1.69925,0.2243 -2.375665,-1.49139 -1.76619,-2.92054 0.613,-1.42093 3.12488,-2.57412 6.24624,-0.74335 1.40566,0.8232 3.5946,2.56942 5.51228,1.02401 0.79384,-0.63766 1.26944,-1.06041 2.37331,-2.33925 0.047,-0.047 0.12095,-0.0822 0.19729,-0.0822 0.0705,0 0.13269,0.0235 0.18202,0.0705 z m 52.64147,7.79752 c -3.27754,-0.75627 -6.75237,-1.226 -10.26713,-1.226 -6.01254,0 -11.48372,1.0428 -15.5187,2.71974 -0.44507,0.22312 -0.76097,0.68698 -0.76097,1.21543 0,0.19141 0.047,0.39105 0.12213,0.55193 0.47678,1.38335 -0.3065,2.88414 -4.2123,3.7414 -5.7906,1.27062 -9.4451,7.24441 -11.5354,9.23137 -2.45668,2.32986 -9.3946,3.76606 -8.35062,2.37566 0.81733,-1.08743 3.93751,-4.4777 5.83757,-8.14395 1.69925,-3.27284 3.2106,-4.20643 5.29503,-7.32896 0.60947,-0.91832 2.97926,-4.13832 3.66977,-6.68426 0.7727,-2.48839 0.512,-5.60623 0.80911,-6.89329 0.42628,-1.85073 2.17485,-5.87162 2.30637,-8.14042 0.0705,-1.28236 -5.36079,1.82725 -7.94079,1.82725 -2.57999,0 -5.0907,-1.54071 -7.3959,-1.65227 -2.85243,-0.1374 -4.68555,2.19833 -7.26672,1.79084 -1.4726,-0.23604 -2.71504,-1.53249 -5.28916,-1.62996 -3.66742,-0.13622 -8.146293,2.03745 -16.562681,1.76736 -8.277818,-0.2654 -15.923848,-10.45854 -16.966649,-12.08028 -1.223647,-1.90359 -2.717388,-1.90359 -4.343829,-0.40632 -1.629963,1.48787 -3.636884,0.31707 -4.209955,-0.68346 -1.086251,-1.898882 -3.988008,-7.45344 -8.484499,-8.616022 -6.218051,-1.614697 -9.366417,3.441947 -8.956578,7.461662 0.414537,4.08078 3.053246,5.22575 4.275718,7.39473 1.221298,2.1725 1.846039,3.57699 4.145368,4.53759 1.628789,0.67523 2.235915,1.68281 1.750918,3.02036 -0.42628,1.16376 -2.122005,1.4315 -3.235265,1.4867 -2.368614,0.11743 -4.02911,-0.5308 -5.241013,-1.30703 -1.406842,-0.89483 -2.554157,-2.14197 -3.782501,-4.26045 -1.422108,-2.33573 -3.66272,-3.3527 -6.273245,-3.3527 -1.242436,0 -2.407367,0.32999 -3.441947,0.86078 -4.090174,2.12671 -8.957752,3.39028 -14.198765,3.39028 l -5.912727,0 C 1.559504,103.64828 0,94.509685 0,85.005872 0,38.056354 38.059877,0 85.007046,0 c 46.948344,0 85.003524,38.056354 85.003524,85.005872 0,17.035938 -5.00967,32.898718 -13.63861,46.204998 z" />
  <path
     style="fill:#cc0000"
     id="path23726"
     d="m 78.392073,40.476638 c -9.818533,0.709292 -10.836672,1.769708 -12.67684,3.728482 -2.594084,2.762013 -6.010196,-3.582866 -6.010196,-3.582866 -2.049197,-0.432151 -4.534069,-3.737877 -3.195338,-6.824003 1.321115,-3.053245 3.761363,-2.137272 4.524674,-1.187243 0.930066,1.157885 2.915849,3.052071 5.493493,2.982786 2.576469,-0.07046 5.549861,-0.6083 9.696402,-0.6083 4.20291,0 7.028336,1.568898 7.18687,2.918198 0.136222,1.148489 -0.33938,2.233566 -5.019065,2.572946 z M 88.708519,24.252162 c -0.02349,0 -0.03523,0.0012 -0.04697,0.0012 -0.151488,0 -0.274792,-0.117432 -0.274792,-0.257177 0,-0.105689 0.05872,-0.192589 0.155011,-0.234865 1.905925,-1.002873 4.744272,-1.804937 7.994802,-2.136097 0.97586,-0.09395 1.92942,-0.151488 2.84656,-0.15736 0.16089,0 0.32177,0 0.485,0 5.44887,0.123304 9.80914,2.28876 9.74572,4.835871 -0.0705,2.54946 -4.53172,4.51528 -9.98176,4.394325 -1.76266,-0.03523 -3.41846,-0.298279 -4.84409,-0.709293 -0.16793,-0.04697 -0.29006,-0.186717 -0.29006,-0.356995 0,-0.170277 0.12448,-0.315893 0.29358,-0.359343 3.39967,-0.786798 5.69431,-2.07151 5.53225,-3.285762 -0.21373,-1.609999 -4.65855,-2.48722 -9.931267,-1.9576 -0.57894,0.05872 -1.14027,0.135048 -1.685156,0.220773 z m 44.268531,38.135034 c -0.84199,2.825426 -2.03393,6.436476 -7.3501,9.164433 -0.77505,0.396922 -1.06981,-0.253654 -0.71281,-0.865478 2.00927,-3.416111 2.36626,-4.27102 2.9499,-5.617971 0.81616,-1.970518 1.24479,-4.774806 -0.38048,-10.619422 -3.19651,-11.506037 -9.86551,-26.88265 -14.71429,-31.871184 -4.67734,-4.815907 -13.15362,-6.167555 -20.81609,-4.204083 -2.8219,0.723384 -8.341232,3.594609 -18.578999,1.289409 -17.718217,-3.990357 -20.345182,4.881669 -21.358625,8.745199 -1.019314,3.865878 -3.459561,14.850515 -3.459561,14.850515 -0.813808,4.475353 -1.880095,12.254083 25.631994,17.495095 12.816584,2.439074 13.468334,5.751845 14.033185,8.133376 1.019316,4.269846 2.643406,6.713617 4.476526,7.936089 1.8296,1.222473 0,2.233567 -2.03276,2.440248 C 85.206681,79.830621 65.03295,74.044721 53.098284,67.262994 43.332597,61.296248 43.17054,55.922536 45.40528,51.36498 30.656931,49.769072 19.585394,52.747161 17.579647,59.729698 14.135351,71.712511 43.925631,92.182172 77.84836,102.45517 c 35.59967,10.77795 72.21395,3.2517 76.28533,-19.123886 1.84604,-10.166132 -6.71714,-17.68651 -21.15664,-20.944088 z" />
</svg>
